<svg width="64" height="64" viewBox="0 0 64 64" fill="none" xmlns="http://www.w3.org/2000/svg">
<path d="M43.72 21.8951V21.7601H43.5V21.8951H43.72ZM45.19 25.4351V25.5001H45.345C45.3464 25.4262 45.3617 25.3533 45.39 25.2851V25.1501C45.325 25.1501 45.26 25.2551 45.2 25.4401L45.19 25.4351ZM39.45 29.8951C39.1282 29.3441 38.7329 28.8395 38.275 28.3951C38.275 28.2351 38.525 28.0001 39.07 27.6851L40.625 26.3301C41.0367 25.6875 41.2505 24.9382 41.24 24.1751V23.9451C41.18 23.2551 40.68 22.7001 39.74 22.2751C39.18 21.8984 38.18 21.6901 36.74 21.6501C35.1065 21.8684 33.5112 22.3127 32 22.9701C31.4167 23.3851 30.8108 23.7674 30.185 24.1151V24.2301C30.2504 24.2177 30.312 24.1903 30.365 24.1501C30.3807 24.1462 30.3971 24.1461 30.4129 24.1496C30.4287 24.1531 30.4434 24.1602 30.456 24.1704C30.4686 24.1805 30.4787 24.1935 30.4854 24.2082C30.4922 24.2229 30.4955 24.2389 30.495 24.2551L30.61 24.1951H30.665V24.2451C30.2872 24.6305 29.8622 24.9665 29.4 25.2451L29.465 25.3651H29.41L29.27 25.3151C29.27 25.3551 29.215 25.3851 29.1 25.3951V25.4451L29.235 25.6151C29.1676 25.6134 29.1013 25.5981 29.04 25.5701C28.8149 25.6015 28.6089 25.7134 28.46 25.8851L28.54 25.5401C28.7967 24.469 28.9904 23.3838 29.12 22.2901V22.2301C28.9042 22.0872 28.7133 21.9098 28.555 21.7051C28.5604 21.6235 28.5604 21.5417 28.555 21.4601V21.4101H28.5C27.8866 22.3334 26.7016 23.9084 24.945 26.1351C23.6116 27.7184 22.9216 28.5984 22.875 28.7751C22.33 29.3401 22.07 29.6801 22.095 29.7751C21.95 29.8701 21.89 29.9601 21.915 30.0651C21.9068 30.0682 21.898 30.0694 21.8893 30.0687C21.8806 30.0681 21.8721 30.0655 21.8645 30.0612C21.8569 30.0569 21.8503 30.051 21.8452 30.0439C21.8401 30.0368 21.8366 30.0287 21.835 30.0201C21.7209 30.206 21.5696 30.3664 21.3906 30.4911C21.2117 30.6159 21.0089 30.7023 20.795 30.7451L20.295 30.8551C20.2793 30.8574 20.2642 30.863 20.2507 30.8715C20.2373 30.8799 20.2257 30.8911 20.2168 30.9043C20.2079 30.9174 20.2018 30.9323 20.1989 30.9479C20.196 30.9636 20.1964 30.9796 20.2 30.9951V31.0551L20.38 31.0151V31.0651L19.97 31.2251L19.245 31.3951H18.865C18.81 31.4501 19.17 31.3951 19.03 31.4251L18.53 31.5351C18.24 31.6001 18.085 31.5751 18.03 31.4601H17.975C17.9838 31.4996 17.9838 31.5406 17.975 31.5801L18.035 31.5001L17.655 31.5901C17.6283 31.4134 17.1133 30.7701 16.11 29.6601C16.11 29.4451 16.445 29.1351 17.17 28.7301L19.21 26.9351C19.6666 26.3484 19.9383 25.4068 20.025 24.1101L20 23.8151C19.92 22.9001 19.26 22.1651 18 21.5951C17.265 21.0951 15.94 20.8301 14.03 20.7901C11.9009 21.0797 9.82047 21.6548 7.84498 22.5001C7.07882 23.0471 6.28074 23.548 5.45498 24.0001V24.1601C5.54072 24.1455 5.62246 24.1131 5.69498 24.0651C5.71496 24.0597 5.73589 24.059 5.75618 24.063C5.77647 24.0671 5.79556 24.0757 5.81199 24.0882C5.82842 24.1008 5.84174 24.117 5.85093 24.1355C5.86012 24.154 5.86492 24.1744 5.86498 24.1951L6.02498 24.1051H6.10498V24.1801C5.59948 24.6754 5.0392 25.1116 4.43498 25.4801L4.52498 25.6201H4.44998L4.27998 25.5601C4.27998 25.6051 4.20498 25.6401 4.03998 25.6551V25.7401L4.22498 25.9451C4.13924 25.9443 4.05442 25.9274 3.97498 25.8951C3.75139 25.9415 3.54047 26.0357 3.35666 26.1712C3.17284 26.3066 3.02047 26.4803 2.90998 26.6801L2.99998 26.8201C3.15396 26.6523 3.33269 26.5089 3.52998 26.3951V26.6251C3.44518 26.6429 3.36402 26.6751 3.28998 26.7201L3.49998 27.0001C3.86167 26.6174 4.26984 26.2814 4.71498 26.0001C4.93498 26.0551 5.04998 26.1251 5.05498 26.2001H5.22498C6.30661 25.3738 7.51128 24.7226 8.79498 24.2701V24.4301C8.57498 24.7634 8.42665 24.9301 8.34998 24.9301C8.35535 25.0383 8.39571 25.1418 8.46498 25.2251C8.48498 25.4251 7.94998 26.7751 6.85998 29.2751C4.40998 35.0518 2.34665 39.3284 0.669983 42.1051C0.68537 42.1869 0.71961 42.2639 0.769983 42.3301C1.04934 42.2846 1.31645 42.1825 1.55498 42.0301H1.64498V42.1901H1.79998L1.95998 42.1001C1.95998 42.1451 2.01498 42.1701 2.12498 42.1601V42.3201C2.10505 42.5637 2.02237 42.798 1.88498 43.0001C1.63435 43.3644 1.45142 43.7709 1.34498 44.2001V44.2751H1.49998C2.10899 43.614 2.62384 42.872 3.02998 42.0701C4.58193 41.6562 6.08924 41.0901 7.52998 40.3801C8.38457 40.3563 9.21149 40.0719 9.89998 39.5651V39.4801L9.50998 39.5951H9.41998V39.5101C9.98054 39.4718 10.5239 39.3004 11.005 39.0101C12.4916 37.8634 13.615 37.0518 14.375 36.5751C15.935 35.4284 16.9466 34.3118 17.41 33.2251L17.67 33.1651C17.7949 33.172 17.9201 33.172 18.045 33.1651C18.045 33.1251 18.045 33.1001 18.095 33.0901C18.445 33.0551 18.275 33.0901 18.5 33.0601L19.085 32.9251C19.05 32.9251 19.035 32.9551 19.045 32.9901L19.135 32.9351H19.09H19.19L19.145 32.9651C19.216 32.9786 19.289 32.9786 19.36 32.9651L19.4 33.1351L16.69 37.3001L16.1 38.0401L15.81 39.0001H15.865L16.155 38.8801L16.06 39.2551L16.09 39.3651L16.17 39.4651C16.135 39.4651 16.12 39.5001 16.13 39.5401V39.6001L16.25 39.5701C16.4266 39.4168 16.5016 39.2768 16.475 39.1501C16.599 39.182 16.7275 39.1922 16.855 39.1801V39.2401C16.74 39.2701 16.68 39.3601 16.67 39.5201V39.5801H16.735C17.705 38.5201 20.08 34.9051 21.985 32.4451C21.925 32.1784 22.925 31.8084 24.985 31.3351H25.05C25.1233 31.6684 24.9566 32.4468 24.55 33.6701C24.3908 34.0637 24.2718 34.4725 24.195 34.8901C23.9939 35.4119 23.8399 35.9508 23.735 36.5001L23.01 38.8801C22.5322 40.1291 22.1706 41.4196 21.93 42.7351C21.9959 42.7207 22.0641 42.7207 22.13 42.7351L22.23 42.6451C22.2316 42.6537 22.2351 42.6618 22.2402 42.6689C22.2453 42.676 22.2519 42.6819 22.2595 42.6862C22.2671 42.6905 22.2756 42.6931 22.2843 42.6937C22.293 42.6944 22.3018 42.6932 22.31 42.6901L22.315 42.5001H22.63C22.725 42.5001 22.8 42.3601 22.87 42.1451C22.87 41.8251 22.92 41.6451 23.065 41.6151C23.1387 41.2156 23.2596 40.8262 23.425 40.4551C23.5018 40.0057 23.638 39.5686 23.83 39.1551C24.105 38.1551 24.33 37.6551 24.435 37.6251L24.465 37.7451L24.265 38.2451C24.0047 39.495 23.6504 40.7235 23.205 41.9201L23.31 42.3651H23.375C24.2416 40.5018 25.4883 36.8118 27.115 31.2951C27.1329 31.0658 27.2054 30.8441 27.3262 30.6484C27.4471 30.4528 27.613 30.2888 27.81 30.1701L27.715 30.0701V30.0201C27.8674 29.9966 28.006 29.9184 28.105 29.8001C28.105 29.7601 27.935 29.6951 27.605 29.6151L28.415 26.1151C28.5045 26.0186 28.6092 25.9376 28.725 25.8751V26.0501C28.6596 26.0625 28.598 26.0899 28.545 26.1301L28.7 26.3501C28.9722 26.0525 29.2794 25.7889 29.615 25.5651C29.785 25.6101 29.865 25.6701 29.875 25.7251H29.995C30.8183 25.1011 31.7344 24.6101 32.71 24.2701V24.3851C32.5467 24.6318 32.435 24.7568 32.375 24.7601C32.3816 24.84 32.4073 24.9172 32.45 24.9851C32.1291 26.0416 31.7262 27.0714 31.245 28.0651C29.8847 31.4221 28.3081 34.6873 26.525 37.8401C26.5404 37.9023 26.5695 37.9604 26.61 38.0101C26.8208 37.9763 27.0219 37.8979 27.2 37.7801H27.255V37.8951H27.385L27.5 37.8351C27.5 37.8684 27.5416 37.8818 27.625 37.8751V38.0001C27.6079 38.1917 27.5387 38.375 27.425 38.5301C27.2267 38.8036 27.0825 39.1125 27 39.4401V39.5001H27.12C27.5824 38.9982 27.9728 38.4345 28.28 37.8251C29.452 37.5094 30.5907 37.0807 31.68 36.5451C32.3325 36.5282 32.9641 36.3118 33.49 35.9251V35.8651L33.185 35.9551H33.12V35.8951C33.5449 35.864 33.9563 35.732 34.32 35.5101C35.445 34.6451 36.32 34.0101 36.88 33.6601C38.68 32.3501 39.515 31.0951 39.415 29.8851L39.45 29.8951ZM39.145 29.9751L39.185 30.4451C39.13 30.5601 39.07 30.6201 39.015 30.6251L38.945 29.8251C39.075 29.8701 39.14 29.9201 39.145 29.9751V29.9751ZM3.86498 26.1851H3.78498V26.0401L4.09498 26.0001V26.0751C4.01094 26.0902 3.93094 26.1226 3.85998 26.1701L3.86498 26.1851ZM2.29498 41.8901C2.14022 41.8124 1.96793 41.7762 1.79498 41.7851V41.5551C1.79498 41.4651 1.83498 41.4051 1.94998 41.3851C2.06498 41.3651 2.11498 41.4501 2.11998 41.6001C2.25148 41.4192 2.40054 41.2517 2.56498 41.1001L2.73498 41.1701C2.67998 41.6351 2.53498 41.8751 2.30498 41.8901H2.29498ZM19.07 24.3401C18.99 24.3401 18.83 24.1001 18.605 23.6151V23.4701C18.755 23.4701 18.91 23.7001 19.07 24.1951V24.3401ZM18.85 22.6001L18.785 22.7551L16.5 21.8051C18.02 21.8551 18.8016 22.1201 18.845 22.6001H18.85ZM9.22998 30.8601L8.90998 30.8901V30.7451L9.22998 30.7151V30.8601ZM8.96998 25.9001H9.04998V26.1301C8.97498 26.1301 8.87998 26.2451 8.75498 26.4601V26.3001C8.89998 26.1301 8.97498 25.9951 8.96498 25.9051L8.96998 25.9001ZM8.28998 27.5001L8.31998 27.8051H8.23998L8.20998 27.5001H8.28998ZM7.93498 28.0701H8.08998C8.08998 28.3201 8.00498 28.4551 7.87998 28.4651H7.79998C7.88066 28.3522 7.92749 28.2187 7.93498 28.0801V28.0701ZM7.66998 28.8601H7.75998V28.9351L7.61498 29.1751H7.45998V29.1001C7.49132 29.1025 7.52278 29.0975 7.55182 29.0854C7.58085 29.0734 7.60664 29.0547 7.6271 29.0308C7.64755 29.007 7.66209 28.9786 7.66955 28.9481C7.677 28.9176 7.67715 28.8857 7.66998 28.8551V28.8601ZM7.40998 29.5751L7.36498 29.9551H7.28498L7.24998 29.5801H7.40998V29.5751ZM4.79498 37.0001C4.68998 37.5001 4.57998 37.7851 4.46498 37.7951V37.7201C4.45609 37.5821 4.48159 37.4441 4.53918 37.3185C4.59678 37.1928 4.68468 37.0834 4.79498 37.0001V37.0001ZM4.29498 38.0401V38.1151C4.30063 38.1359 4.30121 38.1578 4.29667 38.1789C4.29213 38.1999 4.28261 38.2196 4.2689 38.2363C4.2552 38.2529 4.2377 38.266 4.21788 38.2745C4.19806 38.283 4.17649 38.2866 4.15498 38.2851V38.2101C4.15498 38.1201 4.20165 38.0634 4.29498 38.0401ZM4.15498 40.1951H4.39498V40.2801C4.30924 40.2947 4.2275 40.3271 4.15498 40.3751H3.99998C3.99998 40.2951 4.03998 40.2351 4.13998 40.2051L4.15498 40.1951ZM11.05 38.0651C10.203 38.4321 9.39832 38.8897 8.64998 39.4301C7.19332 39.9401 6.47665 40.2584 6.49998 40.3851C5.61217 40.7054 4.744 41.0777 3.89998 41.5001C3.75157 41.4979 3.60584 41.4602 3.47498 41.3901C3.46563 41.2591 3.49412 41.1282 3.55706 41.013C3.62 40.8977 3.71474 40.803 3.82998 40.7401C4.0532 40.7195 4.27807 40.7539 4.48498 40.8401C4.89106 40.6581 5.31503 40.519 5.74998 40.4251V40.2651L5.24998 40.3051C5.68927 40.0325 6.15919 39.8126 6.64998 39.6501H6.88998V39.7251C6.47498 39.7601 6.24498 39.8851 6.19498 40.1001C6.19498 40.2001 6.25998 40.2401 6.36498 40.2301C6.67498 40.0351 6.82998 39.9201 6.82498 39.8851C7.41832 39.7718 9.05332 38.9168 11.73 37.3201V37.4651C11.73 37.5351 11.505 37.7301 11.045 38.0651H11.05ZM6.93998 39.4151C7.31823 39.3848 7.67306 39.2198 7.93998 38.9501C8.04998 38.9501 8.10998 38.9851 8.11498 39.0801C7.72438 39.1838 7.35415 39.3528 7.01998 39.5801H6.93998V39.4251V39.4151ZM13.595 34.3201L11.54 35.9501C10.7537 36.506 9.93007 37.0072 9.07498 37.4501C6.64165 38.7834 5.12998 39.4784 4.53998 39.5351H4.44998C4.52332 39.2618 5.60665 37.0434 7.69998 32.8801C9.20096 32.6386 10.6646 32.2051 12.055 31.5901L12.555 31.5501C12.9485 31.4798 13.3526 31.4948 13.7399 31.594C14.1272 31.6931 14.4887 31.8743 14.8 32.1251L14.83 32.4301C14.4566 33.5001 14.0483 34.1268 13.605 34.3101L13.595 34.3201ZM9.59498 32.0601L9.92498 32.0301V32.1051L9.59498 32.1351V32.0601ZM14.24 31.2751H14.48C14.705 31.3801 14.82 31.4751 14.83 31.5601V31.6351C14.7101 31.6367 14.5919 31.6065 14.4874 31.5477C14.3829 31.4889 14.2958 31.4034 14.235 31.3001L14.24 31.2751ZM14.895 27.5351C14.3609 28.0383 13.7703 28.4779 13.135 28.8451C12.82 28.8751 11.635 29.3451 9.59998 30.2251C9.49824 30.1789 9.38625 30.16 9.27498 30.1701V30.0251C9.28605 29.6227 9.42433 29.2341 9.66998 28.9151C9.82998 28.0751 9.99998 27.5951 10.17 27.4801L11.87 23.6551C11.85 23.4184 12.2133 23.2368 12.96 23.1101H13.2V23.3301C13.93 23.2201 14.39 23.1551 14.565 23.1401C15.915 23.0251 16.62 23.3001 16.675 23.9551H16.83L16.795 23.5701L17 23.5001C17.1649 23.568 17.3101 23.6765 17.422 23.8155C17.5338 23.9545 17.6088 24.1194 17.64 24.2951C17.6243 24.593 17.5019 24.8752 17.295 25.0901C17.195 25.0901 17.13 25.0251 17.125 24.8751H16.955L16.92 25.3401C16.2366 26.3634 15.7366 26.8901 15.42 26.9201C15.14 27.3051 14.97 27.5001 14.92 27.5001L14.895 27.5351ZM15.94 30.2151C15.8442 30.1386 15.7273 30.0932 15.605 30.0851V29.8551H15.76L16.1 30.0551C16.1056 30.0759 16.1062 30.0978 16.1017 30.1189C16.0971 30.1399 16.0876 30.1596 16.0739 30.1763C16.0602 30.1929 16.0427 30.206 16.0229 30.2145C16.0031 30.223 15.9815 30.2266 15.96 30.2251L15.94 30.2151ZM17 31.5001C17.15 31.5601 17.24 31.6251 17.255 31.6851H17.135L17.025 31.7751L17 31.5001ZM17.105 32.1451V32.0851L17.3 32.0401V32.1001L17.105 32.1451ZM17.575 32.6701C17.775 32.6351 17.875 32.6251 18.245 32.5401V32.6001L17.535 32.7651C17.5367 32.7335 17.5367 32.7017 17.535 32.6701H17.575ZM18.265 32.9651C18.0252 32.9702 17.7869 33.0038 17.555 33.0651V33.0051L18.145 32.8151L18.43 32.7501L18.46 32.8601C18.335 32.8901 18.425 32.8901 18.28 32.9651H18.265ZM18.895 32.8151C18.8782 32.8196 18.8608 32.8207 18.8436 32.8183C18.8264 32.8159 18.8099 32.8102 18.795 32.8013C18.7801 32.7925 18.7671 32.7807 18.7568 32.7668C18.7465 32.7528 18.7391 32.737 18.735 32.7201L18.915 32.6801C18.9311 32.6738 18.9484 32.6713 18.9657 32.673C18.9829 32.6746 18.9995 32.6803 19.0141 32.6895C19.0287 32.6988 19.0409 32.7114 19.0498 32.7262C19.0586 32.7411 19.0638 32.7578 19.065 32.7751L18.895 32.8151V32.8151ZM20.6 30.9801V30.9201L20.895 30.8501L20.925 30.9601H20.615L20.6 30.9801ZM22.42 42.1501C22.4325 42.0891 22.4325 42.0261 22.42 41.9651H22.485C22.5 41.9588 22.5163 41.9561 22.5326 41.9571C22.5489 41.9582 22.5647 41.9631 22.5787 41.9713C22.5928 41.9796 22.6048 41.991 22.6137 42.0047C22.6226 42.0183 22.6281 42.0339 22.63 42.0501V42.1101L22.39 42.1651L22.42 42.1501ZM23.7 31.4551H23.57C23.398 31.5267 23.2208 31.5852 23.04 31.6301L22.92 31.6601C22.9042 31.6654 22.8876 31.6674 22.871 31.666C22.8545 31.6645 22.8384 31.6596 22.8238 31.6516C22.8092 31.6437 22.7965 31.6327 22.7864 31.6196C22.7762 31.6064 22.769 31.5912 22.765 31.5751L23.62 31.3801L23.9 31.2501L23.995 31.3551C23.8896 31.3696 23.7898 31.4109 23.705 31.4751L23.7 31.4551ZM24.355 31.2451V31.1851C24.4169 31.1654 24.4723 31.1291 24.515 31.0801L25.12 30.9401V31.0001C24.8586 31.0581 24.6027 31.1384 24.355 31.2401V31.2451ZM24.45 30.0001C24.3868 30.0233 24.329 30.059 24.28 30.1051C24.28 30.0651 24.185 30.0651 24.03 30.1051C24 29.9901 24.45 29.8251 25.375 29.6051L25.505 29.5751L25.535 29.6851C24.885 29.8751 24.535 29.9851 24.45 29.9951V30.0001ZM26.08 28.2401C26 29.0001 25.755 29.4151 25.29 29.5001V29.4401L24.88 29.6001L24.7 29.6401C24.6182 29.6632 24.5317 29.6632 24.45 29.6401L24.395 29.5001C24.9373 28.646 25.5318 27.8261 26.175 27.0451H26.315C26.333 27.457 26.2506 27.8671 26.075 28.2401H26.08ZM28.965 25.7701H28.91V25.6551H29.15V25.7151C29.0871 25.7325 29.0266 25.7577 28.97 25.7901L28.965 25.7701ZM27.775 37.7201C27.6595 37.6597 27.5302 37.6304 27.4 37.6351V37.4601C27.4 37.4001 27.4366 37.3584 27.51 37.3351C27.59 37.3351 27.635 37.3801 27.645 37.5051C27.7401 37.3632 27.8526 37.2339 27.98 37.1201L28.105 37.1701C28.06 37.5251 27.95 37.7101 27.785 37.7251L27.775 37.7201ZM40.5 24.3951C40.44 24.3951 40.325 24.2151 40.14 23.8351V23.7201C40.255 23.7201 40.38 23.8901 40.5 24.2651V24.3951V24.3951ZM40.33 23.0651L40.275 23.1851L38.55 22.4651C39.7 22.5001 40.295 22.7051 40.33 23.0651V23.0651ZM33.035 29.3351H32.795V29.2201H33.035V29.3301V29.3351ZM32.835 25.5651H32.9V25.7401C32.84 25.7401 32.765 25.8234 32.675 25.9901V25.8751C32.7593 25.7916 32.8138 25.6827 32.83 25.5651H32.835ZM32.335 26.7751V27.0051H32.27V26.7751H32.335ZM32.06 27.2101H32.18C32.18 27.4068 32.1283 27.5101 32.025 27.5201H31.96C32.0191 27.4288 32.0535 27.3237 32.06 27.2151V27.2101ZM31.865 27.8051H31.92V27.8651L31.815 28.0501H31.695V28.0001C31.82 28.0001 31.875 27.9251 31.865 27.8101V27.8051ZM31.67 28.3451L31.63 28.6451H31.575V28.3501H31.695L31.67 28.3451ZM29.67 33.9951C29.59 34.3851 29.5066 34.5851 29.42 34.5951V34.5451C29.4159 34.4398 29.4368 34.335 29.4812 34.2393C29.5255 34.1437 29.5919 34.06 29.675 33.9951H29.67ZM29.3 34.7801V34.8301C29.305 34.8466 29.3058 34.864 29.3025 34.8809C29.2992 34.8977 29.2918 34.9135 29.2809 34.9269C29.27 34.9402 29.2561 34.9506 29.2402 34.9573C29.2244 34.964 29.2071 34.9667 29.19 34.9651V34.9051C29.19 34.8451 29.2266 34.8034 29.3 34.7801V34.7801ZM29.195 36.4201H29.38V36.4801C29.3162 36.4923 29.2552 36.516 29.2 36.5501H29.08C29.08 36.4834 29.1167 36.4418 29.19 36.4251L29.195 36.4201ZM34.425 34.8051C33.7849 35.0889 33.1737 35.4338 32.6 35.8351C31.48 36.2251 30.93 36.4701 30.935 36.5651C30.2731 36.8161 29.627 37.1066 29 37.4351C28.8878 37.4303 28.7782 37.3995 28.68 37.3451C28.6689 37.2442 28.6888 37.1423 28.737 37.053C28.7853 36.9637 28.8595 36.8912 28.95 36.8451C29.1203 36.829 29.2919 36.8547 29.45 36.9201C29.7612 36.7868 30.0843 36.683 30.415 36.6101V36.4951L30.035 36.5251C30.3706 36.3167 30.7298 36.1489 31.105 36.0251H31.29V36.0751C30.975 36.1051 30.79 36.1951 30.76 36.3651C30.7595 36.3813 30.7628 36.3973 30.7696 36.412C30.7763 36.4267 30.7864 36.4396 30.799 36.4498C30.8115 36.46 30.8263 36.4671 30.8421 36.4706C30.8579 36.4741 30.8743 36.474 30.89 36.4701C31.125 36.3151 31.235 36.2301 31.235 36.2001C31.6817 36.1201 32.9217 35.4701 34.955 34.2501V34.3651C34.955 34.4151 34.785 34.5651 34.455 34.8201L34.425 34.8051ZM31.305 35.8051C31.5963 35.7826 31.8705 35.6588 32.08 35.4551C32.0957 35.4512 32.1121 35.4511 32.1279 35.4546C32.1437 35.4581 32.1584 35.4652 32.171 35.4754C32.1836 35.4855 32.1937 35.4985 32.2004 35.5132C32.2072 35.5279 32.2104 35.5439 32.21 35.5601C31.9168 35.6354 31.6369 35.7551 31.38 35.9151H31.315V35.8051H31.305ZM36.35 31.9651L34.8 33.2151C34.2006 33.644 33.5706 34.0284 32.915 34.3651C31.0717 35.3651 29.9233 35.8918 29.47 35.9451H29.405C29.4617 35.7351 30.2866 34.0518 31.88 30.8951C33.0196 30.7032 34.1302 30.3672 35.185 29.8951L35.56 29.8601C35.8587 29.8071 36.1653 29.8194 36.4588 29.8962C36.7522 29.973 37.0256 30.1125 37.26 30.3051V30.5351C36.975 31.3351 36.67 31.8051 36.335 31.9501L36.35 31.9651ZM33.305 30.2501H33.545V30.3101H33.305V30.2501ZM36.83 29.6501H37.015C37.185 29.7351 37.275 29.8101 37.28 29.8701V29.9201C37.188 29.9236 37.0969 29.9016 37.0166 29.8566C36.9363 29.8116 36.87 29.7454 36.825 29.6651L36.83 29.6501ZM37.33 26.8151C36.9272 27.1992 36.4808 27.5348 36 27.8151C35.0784 28.0888 34.1805 28.4366 33.315 28.8551C33.2366 28.8268 33.1532 28.8149 33.07 28.8201V28.7051C33.0778 28.3996 33.1809 28.1041 33.365 27.8601C33.485 27.2151 33.62 26.8601 33.76 26.7751L35.06 23.8701C35.06 23.7001 35.32 23.5601 35.88 23.4501H36.065V23.6251C36.615 23.5351 36.96 23.4834 37.1 23.4701C38.1 23.3801 38.66 23.5851 38.705 24.0901H38.825V23.8101H38.945C39.0727 23.856 39.1861 23.9347 39.2738 24.0383C39.3616 24.1418 39.4206 24.2666 39.445 24.4001C39.42 24.6295 39.3135 24.8424 39.145 25.0001C39.065 25.0001 39.02 24.9551 39.01 24.8301H38.89L38.855 25.1801C38.355 25.9651 37.96 26.3751 37.725 26.3901C37.515 26.6751 37.385 26.8201 37.325 26.8251L37.33 26.8151ZM37.875 28.7551V28.5801H37.995L38.255 28.7401C38.2571 28.7557 38.2559 28.7717 38.2513 28.7868C38.2468 28.8019 38.239 28.8159 38.2286 28.8278C38.2182 28.8396 38.2053 28.8491 38.1909 28.8555C38.1764 28.862 38.1608 28.8652 38.145 28.8651C38.071 28.8087 37.9826 28.774 37.89 28.7651L37.875 28.7551ZM16.18 40.0651L16.06 40.0951L15.955 40.1851C15.9568 40.2013 15.9624 40.2169 15.9713 40.2305C15.9802 40.2442 15.9921 40.2556 16.0062 40.2639C16.0203 40.2721 16.0361 40.277 16.0524 40.2781C16.0686 40.2791 16.0849 40.2764 16.1 40.2701C16.18 40.2701 16.21 40.2051 16.195 40.1301V40.0701L16.18 40.0651ZM15.72 39.1451V39.2051C15.8 39.2051 15.83 39.1401 15.815 39.0651V39.0051C15.7989 39.0067 15.7834 39.0118 15.7695 39.02C15.7556 39.0282 15.7437 39.0394 15.7346 39.0528C15.7256 39.0662 15.7196 39.0814 15.717 39.0973C15.7145 39.1133 15.7155 39.1296 15.72 39.1451ZM19 31.3451L19.14 31.3101L19.11 31.1901L18.97 31.2251L19 31.3451ZM61.275 34.8951C60.6589 35.0666 60.0242 35.1623 59.385 35.1801V35.2951H59.585L59.74 35.2351C61.14 35.0801 61.305 35.1351 61.29 34.9801V34.9251L61.275 34.8951ZM53.65 35.8951V36.0101V35.8951ZM52.775 32.8251L52.65 32.7851C52.5794 32.9449 52.529 33.1129 52.5 33.2851V33.3351C52.6 33.3351 52.685 33.1651 52.77 32.8351L52.775 32.8251ZM61.565 34.8601V34.9751L61.77 35.0101V34.8951L61.565 34.8601ZM51.92 36.0501L51.605 36.0151L51.55 36.1351V36.1951L53.435 36.0351V35.9201L51.935 36.0501H51.92ZM51.065 31.9201V31.8601H51L50.885 31.9351L50.95 32.0451C51.04 32.0451 51.08 31.9951 51.07 31.9151L51.065 31.9201ZM62.455 34.0001H62.545C62.595 34.0001 62.62 33.9551 62.615 33.8801L62.565 33.7701C62.3099 33.7687 62.0586 33.8324 61.835 33.9551V33.9001L61.45 33.9351C61.45 33.8201 61.41 33.7601 61.355 33.7651H61.155C60.92 33.7651 60.81 33.7651 60.695 33.8651C60.695 33.8251 60.695 33.8051 60.655 33.8051H60.43L60.3 33.8801C60.3 33.8401 60.3 33.8201 60.26 33.8201L60.18 33.8901V33.8301H59.795V33.9451L59.955 33.9851H60.105C60.1563 34.0152 60.216 34.0275 60.275 34.0201L60.405 33.9551V34.0001C60.0006 34.1053 59.5897 34.1838 59.175 34.2351C59.1399 34.2052 59.096 34.1876 59.05 34.1851C59.0368 34.1845 59.024 34.1812 59.0121 34.1756C59.0002 34.17 58.9895 34.1621 58.9807 34.1523C58.9719 34.1426 58.9651 34.1312 58.9606 34.1188C58.9562 34.1064 58.9543 34.0932 58.955 34.0801L59.215 34.0451C59.2724 34.0633 59.3309 34.0783 59.39 34.0901C59.6 33.9851 59.61 33.9451 59.72 33.9351V33.8201C59.2812 33.9008 58.8361 33.9427 58.39 33.9451H58.35V33.8301C59.505 33.6901 59.12 33.7701 59.515 33.6601C59.515 33.7001 59.515 33.7201 59.555 33.7201C59.5977 33.676 59.6541 33.6478 59.715 33.6401H59.795C60.2481 33.654 60.7006 33.5949 61.135 33.4651V33.5151L61.265 33.4501H61.385C61.385 33.3351 61.555 33.3151 61.615 33.3101V33.1851C60.21 33.4701 59.84 33.3901 59.45 33.5001V33.4501C59.2862 33.488 59.1177 33.5015 58.95 33.4901C58.9053 33.5036 58.8654 33.5296 58.835 33.5651C58.835 33.5251 58.835 33.5051 58.79 33.5051L57.595 33.7001C57.595 33.6651 57.595 33.6501 57.55 33.6551C57.1328 33.7773 56.7036 33.8544 56.27 33.8851C56.2142 33.8952 56.1613 33.9174 56.115 33.9501C56.115 33.9151 56.115 33.9001 56.05 33.9051L55.55 33.9451L55.21 34.0301C55.21 33.9951 55.21 33.9801 55.145 33.9851C54.9817 34.0324 54.8143 34.0642 54.645 34.0801C54.56 34.0801 54.685 34.0801 54.645 34.0301L54.54 34.0901H53.96C53.06 34.2001 53.16 34.2151 53.06 34.2201H52.725C52.7267 34.2272 52.7266 34.2347 52.7248 34.2417C52.723 34.2488 52.7194 34.2554 52.7145 34.2608C52.7096 34.2662 52.7034 34.2704 52.6965 34.2728C52.6896 34.2753 52.6822 34.2761 52.675 34.2751C52.295 34.2251 52.095 34.1651 52.095 34.0951C52.145 33.7318 52.2333 33.5451 52.36 33.5351H52.425L52.37 33.6551H52.435C52.555 33.5901 52.61 33.5301 52.605 33.4751V33.3501H52.485V33.2351C52.4738 33.155 52.4859 33.0734 52.52 33.0001L52.795 32.5551V32.6701H52.925V32.5551L52.85 32.4501C52.9144 32.3843 52.9957 32.3376 53.085 32.3151V32.2551H52.91V32.0801C53.1352 31.6769 53.3035 31.2445 53.41 30.7951L53.535 30.8451C53.615 30.8451 53.65 30.7951 53.645 30.7101H53.525V30.6601C53.5164 30.5758 53.532 30.4908 53.57 30.4151C53.6555 30.3388 53.7231 30.2445 53.768 30.1391C53.813 30.0337 53.8341 29.9196 53.83 29.8051C53.865 29.8051 53.885 29.8051 53.89 29.8601C54.055 29.7651 54.18 29.5201 54.27 29.1101C54.7212 28.1015 55.1005 27.0622 55.405 26.0001C56.405 23.2401 56.405 22.9501 56.53 22.2951H56.41C56.4191 22.3778 56.4034 22.4613 56.365 22.5351C56.3037 22.5071 56.2374 22.4918 56.17 22.4901V22.4401C56.175 22.1293 56.2822 21.8289 56.475 21.5851H56.5L56.605 21.9851H56.725C56.745 21.8164 56.7768 21.6494 56.82 21.4851C56.82 21.4251 56.77 21.3851 56.675 21.3801L56.56 21.4551V20.8051H56.5C56.4193 20.7407 56.3628 20.6508 56.34 20.5501L55.675 20.6151C55.6624 20.5428 55.637 20.4734 55.6 20.4101C55.6 20.3501 55.745 20.2901 56.05 20.2301L56.185 20.2801L56.31 20.2051C56.31 20.2451 56.34 20.2651 56.385 20.2601L56.51 20.1851C56.51 20.2251 56.54 20.2451 56.585 20.2401H56.645V20.1051H55.915L55.79 20.1901V20.1001C52.6633 20.3568 50.8883 20.5051 50.465 20.5451H49.805C49.805 20.5951 49.765 20.6251 49.67 20.6351L49.535 20.5751L49.08 20.6901C48.9003 20.7061 48.7196 20.7061 48.54 20.6901C48.467 20.7483 48.3781 20.7831 48.285 20.7901L49.62 20.7051C49.5239 20.7703 49.4111 20.8068 49.295 20.8101C49.2041 20.8224 49.1117 20.8067 49.03 20.7651C48.7024 20.866 48.3683 20.9445 48.03 21.0001L47.895 20.9501L45.715 21.2851C45.6228 21.2429 45.5206 21.2274 45.42 21.2401C45.2236 21.2659 45.0296 21.3077 44.84 21.3651L43.785 21.8051L43.865 21.9351C43.9416 21.9215 44.0148 21.8926 44.08 21.8501L44.455 21.8851L44.41 22.2351C44.2619 22.2877 44.1295 22.3766 44.0247 22.4937C43.9198 22.6107 43.846 22.7522 43.81 22.9051C43.31 23.1351 43.035 23.2951 43.035 23.4051V23.4651H43.115L43.255 23.3901L43.42 23.5851V23.8551C43.42 23.9384 42.5517 25.7718 40.815 29.3551C39.315 32.8051 38.515 34.6901 38.44 35.0301C37.94 35.1751 37.625 35.3851 37.535 35.6651C37.535 35.7551 37.7 35.8151 37.995 35.8351V35.9701L37.86 36.1951V36.4651C37.86 36.6051 38.2367 36.7118 38.99 36.7851C38.99 36.7401 38.99 36.7101 39.06 36.7051C39.055 37.043 39.008 37.3789 38.92 37.7051H39C39.2648 37.4466 39.44 37.1102 39.5 36.7451H39.565C39.64 36.7451 39.72 36.8251 39.81 37.0051C39.7167 37.0418 39.3833 37.7834 38.81 39.2301L38.89 39.3601H39C39.6833 37.6268 40.1133 36.6684 40.29 36.4851C41.19 36.4051 42.745 36.2384 44.955 35.9851L45.095 35.9001C45.0945 35.9106 45.0965 35.9211 45.1009 35.9306C45.1054 35.9402 45.1121 35.9485 45.1204 35.9549C45.1288 35.9613 45.1386 35.9656 45.1489 35.9673C45.1593 35.9691 45.17 35.9683 45.18 35.9651H45.325L45.465 35.8801C45.4645 35.8906 45.4665 35.9011 45.4709 35.9106C45.4754 35.9202 45.4821 35.9285 45.4904 35.9349C45.4988 35.9413 45.5086 35.9456 45.5189 35.9473C45.5293 35.9491 45.54 35.9483 45.55 35.9451L47.225 35.8001C47.67 35.7651 47.875 35.6301 47.86 35.4001C47.86 35.3401 48.115 35.2701 48.645 35.1951C48.7235 35.1942 48.8014 35.2078 48.875 35.2351C48.875 35.1951 49.135 35.1501 49.665 35.1051C49.665 34.8251 49.77 34.6751 49.925 34.6601V34.5251C49.7546 34.5448 49.5869 34.5834 49.425 34.6401C49.2011 34.6373 48.9782 34.6104 48.76 34.5601C48.6943 34.6018 48.6214 34.6306 48.545 34.6451L47.38 34.6801L47.24 34.7551C47.24 34.7118 47.2117 34.6934 47.155 34.7001H47.09L46.94 34.7751C46.94 34.7351 46.815 34.7001 46.57 34.6701L46.42 34.7601H46.13V34.6851C47.63 34.5218 48.37 34.3184 48.35 34.0751C48.3698 34.0704 48.3904 34.0703 48.4103 34.075C48.4301 34.0797 48.4485 34.089 48.4641 34.1022C48.4797 34.1153 48.4919 34.1319 48.4999 34.1507C48.5079 34.1694 48.5113 34.1898 48.51 34.2101L48.95 34.1001V33.9651L45.36 34.0651C45.36 34.1101 45.36 34.1401 45.29 34.1451L44.85 34.1101C44.749 34.116 44.6519 34.1507 44.57 34.2101L44.405 34.1501C44.0669 34.1711 43.7319 34.2264 43.405 34.3151C43.0722 34.2889 42.7378 34.2889 42.405 34.3151L41.6 34.3851L41.225 34.3451C41.225 34.1051 41.67 32.9401 42.62 30.8451C42.7607 30.347 43.0256 29.8928 43.39 29.5251C43.4698 29.5262 43.5483 29.545 43.62 29.5801L44.195 29.3851L44.49 29.4301C45.0813 29.3653 45.6613 29.2224 46.215 29.0051C46.341 28.9869 46.4695 28.9989 46.59 29.0401L47.03 28.9351L48.335 28.8251C48.9498 28.7667 49.5566 28.6427 50.145 28.4551V28.3201C49.905 28.3201 49.775 28.3201 49.77 28.2051C49.77 28.0251 49.58 27.9501 49.24 27.9751V27.8401L49.6 27.7351L50.54 27.6551V27.5201H49.96V27.3751L50.325 27.3401C50.425 27.3401 50.465 27.2851 50.455 27.1901C49.955 27.1901 49.72 27.1901 49.715 27.1151C46.305 27.2818 44.595 27.3134 44.585 27.2101C44.5076 27.2269 44.4345 27.2592 44.37 27.3051L44.28 27.1651C45.1833 25.2451 45.7133 24.2784 45.87 24.2651C45.8608 24.3925 45.8213 24.5159 45.755 24.6251V24.6851H45.9C46.26 23.8301 46.56 23.3851 46.815 23.3651C47.885 23.2701 46.665 23.2001 48.96 22.8651C49.023 22.8995 49.0932 22.9184 49.165 22.9201C50.065 22.7401 51.3183 22.5501 52.925 22.3501V22.2151L52.07 22.2951V22.1601C52.1631 22.1531 52.252 22.1183 52.325 22.0601V22.1351C52.3962 22.1181 52.4627 22.0857 52.52 22.0401C52.6348 22.0207 52.7528 22.0346 52.86 22.0801C53.0944 22.0143 53.3334 21.9658 53.575 21.9351L54.11 21.8851C54.24 21.8001 54.3 21.7251 54.295 21.6551V21.5951C54.1377 21.6071 53.9795 21.597 53.825 21.5651C53.8229 21.5474 53.8244 21.5294 53.8293 21.5122C53.8342 21.495 53.8425 21.479 53.8536 21.465C53.8648 21.4511 53.8786 21.4395 53.8943 21.4309C53.91 21.4223 53.9272 21.417 53.945 21.4151L54.945 21.3201L55.4 21.2051C55.4 21.2551 55.43 21.2751 55.465 21.2751C55.5362 21.2581 55.6027 21.2257 55.66 21.1801H55.735C55.6542 21.3563 55.5873 21.5385 55.535 21.7251H55.405C55.3982 21.6405 55.3725 21.5585 55.33 21.4851H55.265C54.055 24.8601 53.515 26.4301 52.395 29.0201C52.19 29.6801 52.02 30.0501 51.87 30.1301C51.8695 30.1463 51.8728 30.1623 51.8796 30.177C51.8863 30.1917 51.8964 30.2046 51.909 30.2148C51.9215 30.225 51.9363 30.2321 51.9521 30.2356C51.9679 30.2391 51.9843 30.239 52 30.2351C52.0258 30.5729 51.9454 30.9103 51.77 31.2001C51.27 32.7001 50.91 33.5051 50.73 33.6551L50.845 34.3601C50.8471 34.3757 50.8459 34.3917 50.8413 34.4068C50.8368 34.4219 50.829 34.4359 50.8186 34.4478C50.8082 34.4596 50.7953 34.4691 50.7809 34.4755C50.7664 34.482 50.7508 34.4852 50.735 34.4851H50.615C50.615 34.2901 50.525 34.1951 50.4 34.2101H50.335C50.1673 34.4744 50.0455 34.7651 49.975 35.0701H50.095C50.1644 35.0357 50.2226 34.982 50.2625 34.9156C50.3023 34.8491 50.3223 34.7726 50.32 34.6951H50.56L50.7 34.7451C50.6058 34.8674 50.5517 35.0159 50.545 35.1701L50.61 35.2801L50.45 35.6551V35.7151C50.6117 35.7086 50.7712 35.7541 50.905 35.8451C51.0388 35.8265 51.166 35.775 51.275 35.6951H52.835L53.285 35.5401C53.6071 35.5416 53.9291 35.5282 54.25 35.5001H54.445L54.55 35.4301V35.4901C54.8652 35.4439 55.1858 35.4472 55.5 35.5001V35.5601H55.225V35.6751C55.3053 35.6698 55.382 35.6402 55.445 35.5901C55.515 35.5901 55.555 35.6251 55.56 35.7051C55.4321 35.7186 55.3062 35.7472 55.185 35.7901L55.065 35.7501C54.875 35.8001 54.915 35.8151 54.785 35.8251L54.595 35.7901C54.5965 35.7968 54.5965 35.8037 54.5949 35.8104C54.5934 35.8171 54.5903 35.8233 54.5859 35.8286C54.5816 35.8339 54.5761 35.8382 54.5699 35.841C54.5636 35.8439 54.5568 35.8453 54.55 35.8451C54.5491 35.86 54.5515 35.8749 54.5571 35.8888C54.5627 35.9026 54.5713 35.915 54.5824 35.9251C54.5934 35.9352 54.6065 35.9426 54.6208 35.947C54.6351 35.9513 54.6502 35.9524 54.665 35.9501H54.86L55.86 35.8601L56.245 35.7751C56.245 35.8101 56.245 35.8251 56.295 35.8201L56.48 35.7501L56.83 35.7201C57.1 35.7201 57.095 35.6801 57.68 35.5851C57.68 35.5501 57.68 35.5351 57.715 35.5301V35.5801C58.1097 35.5322 58.5007 35.4571 58.885 35.3551V35.3851C59.125 35.3301 58.99 35.3451 59.055 35.2951C59.055 35.3351 59.055 35.3551 59.095 35.3551H59.265V35.2301H58.845C58.7197 35.2536 58.5924 35.2636 58.465 35.2601L57.61 35.3051V35.2451L58.11 35.1801H58.28L58.38 35.1101V35.1701C59.05 35.1151 59.29 35.2801 62.38 34.6201C62.55 34.6201 62.535 34.4651 62.64 34.1751C62.5827 34.18 62.5253 34.1679 62.475 34.1401C62.1846 34.2106 61.8884 34.2541 61.59 34.2701C61.55 34.2701 61.515 34.2351 61.5 34.1651V34.1151H62C62.1772 34.0963 62.348 34.0382 62.5 33.9451C62.5 33.9851 62.405 34.0101 62.465 34.0051L62.455 34.0001ZM39.5 34.3851H39.28C39.3533 34.0381 39.4709 33.702 39.63 33.3851H39.775C39.7293 33.7294 39.6368 34.0659 39.5 34.3851V34.3851ZM39.765 33.3251V33.2651C39.765 33.1901 39.805 33.1401 39.91 33.1151V33.1751C39.91 33.2651 39.87 33.3151 39.765 33.3251ZM42.675 35.5751V35.6351L42.31 35.6701V35.6101L42.675 35.5751ZM42.235 35.5401C42.235 35.6151 42.13 35.7001 41.885 35.7801L41.44 35.7451H41.295V35.6101L42.25 35.5201L42.235 35.5401ZM45.2 22.0001H45V21.9251C45 21.8501 45.035 21.8001 45.13 21.7751H45.21L45.36 21.8351C45.363 21.8542 45.3617 21.8737 45.3562 21.8923C45.3507 21.9108 45.3411 21.9279 45.3282 21.9422C45.3153 21.9566 45.2993 21.9679 45.2814 21.9753C45.2636 21.9827 45.2443 21.9861 45.225 21.9851L45.2 22.0001ZM48.53 21.3501H48.6V21.4851H48.4C48.3979 21.4674 48.3994 21.4494 48.4043 21.4322C48.4092 21.415 48.4175 21.399 48.4286 21.385C48.4398 21.3711 48.4536 21.3595 48.4693 21.3509C48.485 21.3423 48.5022 21.337 48.52 21.3351L48.53 21.3501ZM47.69 21.6451L47.36 21.6101V21.5001C47.6471 21.4809 47.9308 21.4272 48.205 21.3401C48.205 21.3901 48.255 21.4101 48.34 21.4001V21.5351H48.21C48.1191 21.5474 48.0267 21.5317 47.945 21.4901C47.8689 21.5419 47.7814 21.5745 47.69 21.5851V21.6451ZM48.105 22.8501V22.7901L48.64 22.7401V22.8001L48.105 22.8501ZM48.68 22.3851V22.3101H48.94V22.3851H48.68ZM48.74 21.4701H48.67L48.73 21.3251L49.325 21.2701V21.3451C49.1253 21.3685 48.9279 21.4086 48.735 21.4651L48.74 21.4701ZM49.045 22.7551V22.6201H49.305C49.395 22.6201 49.4417 22.6618 49.445 22.7451L49.055 22.7801L49.045 22.7551ZM50.625 20.6051L50.29 20.7001H50.23C50.0287 20.7179 49.8263 20.7179 49.625 20.7001C50.06 20.6701 50.475 20.6401 50.625 20.6151V20.6051ZM50.265 22.1051V22.1651L49.805 22.2051V22.1451L50.265 22.1051ZM51.02 22.4651C51.02 22.4101 50.925 22.3701 50.745 22.3551L50.285 22.4851H49.93C49.85 22.4301 49.81 22.3901 49.805 22.3651H50.215L51.135 22.2151H51.605V22.2901C51.4044 22.3075 51.2064 22.3478 51.015 22.4101L51.02 22.4651ZM55.765 21.2401H55.87C56.0297 21.0813 56.218 20.9541 56.425 20.8651C56.3225 21.4731 56.0504 22.0399 55.64 22.5001L55.38 22.3401C55.5337 21.9794 55.6623 21.6085 55.765 21.2301V21.2401ZM54.965 22.6151H55.03C54.94 22.7851 54.86 22.8701 54.795 22.8751V22.7001C54.8607 22.6889 54.9226 22.6614 54.975 22.6201L54.965 22.6151ZM54.465 23.8501C54.505 23.5362 54.6294 23.2389 54.825 22.9901V23.0001C54.76 23.4651 54.655 23.7151 54.52 23.7301V24.0251C54.4284 24.1301 54.3724 24.2613 54.36 24.4001H54.295L54.26 23.9951C54.335 23.9951 54.395 23.9201 54.435 23.8001L54.465 23.8501ZM54.265 24.5201C54.2458 24.6927 54.2003 24.8613 54.13 25.0201H54.065V24.8451C54.155 24.6401 54.23 24.5351 54.28 24.5351L54.265 24.5201ZM50.5 35.4001V35.3501H50.62V35.5251C50.555 35.5251 50.51 35.4901 50.49 35.4101L50.5 35.4001ZM55.87 35.5401C55.87 35.5001 55.87 35.4801 55.805 35.4851L55.5 35.5001V35.4501L56.215 35.3901V35.4501C56.0837 35.4402 55.9525 35.4716 55.84 35.5401H55.87ZM55.51 35.3901C55.54 35.3901 55.51 35.4201 55.51 35.4251C55.51 35.4301 55.475 35.4251 55.51 35.3901ZM55.545 34.5501L55.145 34.5851V34.5001H55.5L55.815 34.4201C55.815 34.4551 55.815 34.4701 55.88 34.4651C56.255 34.4001 56.22 34.3801 56.38 34.3651C56.44 34.3651 56.48 34.4001 56.485 34.4701L55.52 34.5551L55.545 34.5501ZM56.945 34.4301C56.8151 34.4037 56.6824 34.3936 56.55 34.4001V34.3501L56.91 34.3151V34.3651C56.875 34.3651 57.01 34.3651 56.945 34.4251V34.4301ZM56.975 34.3651V34.3151H57.17V34.3651H56.975ZM57.41 34.3301V34.2801C57.4619 34.2665 57.5099 34.2408 57.55 34.2051C57.5692 34.2023 57.5887 34.2035 57.6074 34.2086C57.6261 34.2138 57.6435 34.2227 57.6585 34.235C57.6736 34.2472 57.6859 34.2624 57.6948 34.2796C57.7036 34.2969 57.7088 34.3158 57.71 34.3351L57.41 34.3301ZM57.965 34.2601V34.2001H58.205V34.2601H57.965ZM58.295 34.2301C58.295 34.1601 58.295 34.1201 58.38 34.1101L58.46 34.2151C58.4585 34.2092 58.4583 34.203 58.4592 34.197C58.4602 34.191 58.4624 34.1852 58.4657 34.1801C58.469 34.175 58.4733 34.1705 58.4783 34.1671C58.4833 34.1637 58.489 34.1613 58.495 34.1601L58.555 34.2701L58.295 34.2351V34.2301ZM54.795 35.7301V35.6151H54.76V35.7301H54.795ZM62.98 33.6101C63.015 33.6101 63.035 33.5651 62.945 33.5501C62.855 33.5351 62.99 33.6101 62.9 33.6151V33.6551L62.95 33.6201L62.9 33.6601L62.8 33.7851L62.995 33.7151V33.6001L62.98 33.6101ZM63.32 33.8751H63.285V33.9901H63.56C63.56 33.9151 63.375 33.8901 63.315 33.8901L63.32 33.8751Z" fill="black"/>
<path d="M45 25.0649V25.1399H45.155C45.1564 25.066 45.1717 24.9931 45.2 24.9249V24.7899C45.135 24.7899 45.07 24.8949 45.01 25.0799L45 25.0649ZM43.5 21.4999V21.3649H43.28V21.4999H43.5ZM39.24 29.4999C38.9182 28.9489 38.5229 28.4443 38.065 27.9999C38.065 27.8399 38.315 27.6049 38.86 27.2899L40.42 25.9999C40.8317 25.3573 41.0456 24.608 41.035 23.8449V23.6149C40.975 22.9249 40.475 22.3699 39.535 21.9449C38.975 21.5682 37.975 21.3599 36.535 21.3199C34.9149 21.5318 33.3317 21.9659 31.83 22.6099C31.2467 23.0249 30.6408 23.4071 30.015 23.7549V23.8699C30.0804 23.8573 30.1419 23.83 30.195 23.7899C30.2107 23.786 30.2271 23.7859 30.2429 23.7894C30.2587 23.7929 30.2735 23.8 30.286 23.8102C30.2986 23.8203 30.3087 23.8333 30.3155 23.848C30.3222 23.8627 30.3255 23.8787 30.325 23.8949L30.44 23.8349H30.495V23.8849C30.1188 24.2699 29.6954 24.6059 29.235 24.8849L29.3 25.0049H29.245L29.105 24.9549C29.105 24.9949 29.05 25.0249 28.935 25.0349V25.0849L29.07 25.2549C29.0027 25.2532 28.9363 25.2379 28.875 25.2099C28.65 25.2413 28.4439 25.3532 28.295 25.5249L28.375 25.1799C28.6318 24.1088 28.8255 23.0236 28.955 21.9299V21.8699C28.7392 21.727 28.5484 21.5496 28.39 21.3449C28.3954 21.2633 28.3954 21.1815 28.39 21.0999V21.0499H28.335C27.7184 21.9732 26.5334 23.5482 24.78 25.7749C23.4467 27.3582 22.7567 28.2382 22.71 28.4149C22.165 28.9799 21.905 29.3199 21.93 29.4149C21.785 29.5099 21.725 29.5999 21.75 29.7049C21.7418 29.708 21.7331 29.7092 21.7244 29.7085C21.7156 29.7079 21.7072 29.7053 21.6996 29.701C21.6919 29.6967 21.6853 29.6908 21.6802 29.6837C21.6751 29.6766 21.6717 29.6685 21.67 29.6599C21.5559 29.8458 21.4046 30.0062 21.2257 30.1309C21.0467 30.2557 20.8439 30.3421 20.63 30.3849L20.13 30.4949C20.1143 30.4972 20.0992 30.5028 20.0858 30.5113C20.0723 30.5197 20.0608 30.5309 20.0518 30.5441C20.0429 30.5572 20.0368 30.5721 20.0339 30.5877C20.031 30.6034 20.0314 30.6194 20.035 30.6349V30.6949L20.215 30.6549V30.7049L19.805 30.8649L19.08 31.0349H18.7C18.645 31.0899 19.005 31.0349 18.865 31.0649L18.365 31.1749C18.075 31.2399 17.92 31.2149 17.865 31.0999H17.81C17.819 31.1394 17.819 31.1804 17.81 31.2199L17.78 31.1049L17.4 31.1949C17.3734 31.0182 16.8584 30.3749 15.855 29.2649C15.855 29.0499 16.19 28.7399 16.915 28.3349L19 26.5699C19.4567 25.9832 19.7284 25.0416 19.815 23.7449L19.785 23.4399C19.705 22.5249 19.045 21.7899 17.785 21.2199C17.05 20.7199 15.725 20.4549 13.815 20.4149C11.6888 20.6968 9.61012 21.2636 7.63502 22.0999C6.86886 22.6469 6.07078 23.1478 5.24502 23.5999V23.7599C5.33076 23.7453 5.4125 23.7129 5.48502 23.6649C5.505 23.6595 5.52593 23.6588 5.54622 23.6628C5.56651 23.6669 5.5856 23.6755 5.60203 23.688C5.61846 23.7006 5.63178 23.7168 5.64097 23.7353C5.65015 23.7538 5.65496 23.7742 5.65502 23.7949L5.81502 23.7049H5.89502V23.7799C5.38952 24.2752 4.82924 24.7114 4.22502 25.0799L4.31502 25.2199H4.24502L4.07502 25.1599C4.07502 25.2049 4.00002 25.2399 3.83502 25.2549V25.3399L4.02002 25.5449C3.93428 25.5441 3.84946 25.5272 3.77002 25.4949C3.54643 25.5413 3.33551 25.6355 3.1517 25.771C2.96788 25.9064 2.81551 26.0801 2.70502 26.2799L2.79502 26.4199C2.95088 26.2534 3.13131 26.1118 3.33002 25.9999V26.2299C3.24522 26.2477 3.16406 26.2799 3.09002 26.3249L3.28002 26.6149C3.64174 26.2322 4.04991 25.8963 4.49502 25.6149C4.71502 25.6699 4.83002 25.7399 4.83502 25.8149H5.00502C6.08665 24.9886 7.29132 24.3374 8.57502 23.8849V24.0449C8.35502 24.3782 8.20669 24.5449 8.13002 24.5449C8.13539 24.6531 8.17574 24.7566 8.24502 24.8399C8.26502 25.0399 7.73002 26.3899 6.64002 28.8899C4.21336 34.6732 2.15336 38.9549 0.460022 41.7349C0.475584 41.8166 0.509807 41.8936 0.560022 41.9599C0.839338 41.9142 1.10643 41.8121 1.34502 41.6599H1.43502V41.8199H1.59002L1.75002 41.7299C1.75002 41.7749 1.80502 41.7999 1.91502 41.7899V41.9499C1.89436 42.2058 1.80449 42.4512 1.65502 42.6599C1.40448 43.0243 1.22157 43.4307 1.11502 43.8599V43.9349H1.27002C1.87898 43.2737 2.39383 42.5317 2.80002 41.7299C4.35194 41.3159 5.85924 40.7498 7.30002 40.0399C8.15461 40.0161 8.98152 39.7317 9.67002 39.2249V39.1399L9.28002 39.2549H9.19002V39.1699C9.75058 39.1316 10.2939 38.9602 10.775 38.6699C12.2617 37.5232 13.385 36.7116 14.145 36.2349C15.705 35.0882 16.7184 33.9716 17.185 32.8849L17.445 32.8249C17.5699 32.8318 17.6951 32.8318 17.82 32.8249C17.82 32.7849 17.82 32.7599 17.87 32.7499C18.22 32.7149 18.05 32.7499 18.275 32.7199L18.845 32.4999H18.945L18.9 32.5299C18.971 32.5435 19.044 32.5435 19.115 32.5299L19.155 32.6999L16.5 36.9249L15.91 37.6649L15.62 38.6349H15.675L15.965 38.5149L15.87 38.8899L15.9 38.9999L15.98 39.0999C15.945 39.0999 15.93 39.1349 15.94 39.1749V39.2349L16.06 39.2049C16.2367 39.0516 16.3117 38.9116 16.285 38.7849C16.409 38.8168 16.5376 38.827 16.665 38.8149V38.8749C16.55 38.9049 16.49 38.9949 16.48 39.1549V39.2149H16.545C17.515 38.1549 19.89 34.5399 21.795 32.0799C21.735 31.8132 22.735 31.4432 24.795 30.9699H24.86C24.9334 31.3032 24.7667 32.0816 24.36 33.3049C24.2126 33.6916 24.1038 34.0918 24.035 34.4999C23.8338 35.0217 23.6799 35.5605 23.575 36.1099L22.845 38.4999C22.3672 39.7489 22.0056 41.0394 21.765 42.3549C21.831 42.3414 21.899 42.3414 21.965 42.3549L22.07 42.2649C22.0717 42.2735 22.0751 42.2816 22.0802 42.2887C22.0853 42.2958 22.0919 42.3017 22.0996 42.306C22.1072 42.3103 22.1156 42.3129 22.1244 42.3135C22.1331 42.3142 22.1418 42.313 22.15 42.3099L22.11 42.1399H22.425C22.52 42.1399 22.595 41.9999 22.665 41.7849C22.665 41.4649 22.715 41.2849 22.86 41.2549C22.9338 40.8554 23.0546 40.466 23.22 40.0949C23.2968 39.6455 23.433 39.2084 23.625 38.7949C23.9 37.7949 24.125 37.2949 24.23 37.2649L24.26 37.3849L24.06 37.8849C23.8003 39.1382 23.4459 40.3701 23 41.5699L23.105 42.0149H23.17C24.0367 40.1516 25.2834 36.4616 26.91 30.9449C26.928 30.7156 27.0004 30.4939 27.1213 30.2982C27.2422 30.1026 27.408 29.9386 27.605 29.8199L27.51 29.7199V29.6699C27.6624 29.6463 27.801 29.5682 27.9 29.4499C27.9 29.4099 27.73 29.3449 27.4 29.2649L28.21 25.7649C28.2996 25.6685 28.4043 25.5874 28.52 25.5249V25.6999C28.4547 25.7124 28.3931 25.7398 28.34 25.7799L28.5 25.9999C28.7722 25.7023 29.0795 25.4387 29.415 25.2149C29.585 25.2599 29.665 25.3199 29.675 25.3749H29.795C30.6156 24.7535 31.5283 24.2643 32.5 23.9249V24.0399C32.3367 24.2866 32.225 24.4116 32.165 24.4149C32.1716 24.4948 32.1973 24.572 32.24 24.6399C31.919 25.6963 31.5161 26.7261 31.035 27.7199C29.6799 31.0782 28.1083 34.3451 26.33 37.4999C26.3455 37.5621 26.3745 37.6202 26.415 37.6699C26.6241 37.6354 26.8235 37.557 27 37.4399H27.055V37.5549H27.185L27.3 37.4949C27.3 37.5282 27.3417 37.5416 27.425 37.5349V37.6599C27.4077 37.8514 27.3385 38.0346 27.225 38.1899C27.0268 38.4634 26.8825 38.7723 26.8 39.0999V39.1599H26.92C27.3825 38.658 27.7729 38.0943 28.08 37.4849C29.2598 37.1623 30.4053 36.7253 31.5 36.1799C32.1525 36.163 32.7842 35.9466 33.31 35.5599V35.4999L33.005 35.5899H32.95V35.5299C33.3749 35.4988 33.7863 35.3668 34.15 35.1449C35.275 34.2799 36.15 33.6449 36.71 33.2949C38.5 31.9999 39.34 30.7299 39.24 29.4999ZM38.93 29.5799L38.97 30.0499C38.915 30.1649 38.855 30.2249 38.8 30.2299L38.73 29.4299C38.86 29.4749 38.925 29.5249 38.93 29.5799V29.5799ZM3.65502 25.8099H3.57502V25.6649L3.89502 25.6349V25.7099C3.81098 25.725 3.73098 25.7574 3.66002 25.8049L3.65502 25.8099ZM2.08502 41.4999C1.93026 41.4222 1.75797 41.386 1.58502 41.3949V41.1649C1.58502 41.0749 1.62502 41.0149 1.74002 40.9949C1.85502 40.9749 1.90502 41.0599 1.91002 41.2099C2.0415 41.029 2.19056 40.8615 2.35502 40.7099L2.52502 40.7799C2.47002 41.2449 2.32502 41.4849 2.09502 41.4999H2.08502ZM18.86 23.9499C18.78 23.9499 18.62 23.7099 18.395 23.2249V23.0799C18.545 23.0799 18.7 23.3099 18.86 23.8049V23.9499ZM18.635 22.2099L18.57 22.3649L16.29 21.4149C17.81 21.4649 18.5917 21.7299 18.635 22.2099V22.2099ZM9.00002 30.4999L8.68002 30.5299V30.3849L9.00002 30.3549V30.4999ZM8.74002 25.5399H8.82002V25.7699C8.74502 25.7699 8.65002 25.8849 8.52502 26.0999V25.9399C8.67002 25.7699 8.74502 25.6349 8.73502 25.5449L8.74002 25.5399ZM8.06502 27.1349L8.09502 27.4399H8.01502L8.00002 27.1249L8.06502 27.1349ZM7.71002 27.7049H7.86502C7.86502 27.9549 7.78002 28.0899 7.65502 28.0999H7.57502C7.6557 27.987 7.70253 27.8534 7.71002 27.7149V27.7049ZM7.46002 28.4999H7.55002V28.5749L7.40502 28.8149H7.25002V28.7399C7.28136 28.7423 7.31282 28.7373 7.34186 28.7252C7.37089 28.7132 7.39668 28.6945 7.41714 28.6706C7.43759 28.6468 7.45213 28.6184 7.45958 28.5879C7.46704 28.5574 7.46719 28.5255 7.46002 28.4949V28.4999ZM7.20002 29.2149L7.15502 29.5949H7.07502L7.04002 29.2199H7.20002V29.2149ZM4.58502 36.6249C4.48002 37.1249 4.37002 37.4099 4.25502 37.4199V37.3449C4.2467 37.2065 4.27297 37.0682 4.33145 36.9425C4.38994 36.8168 4.4788 36.7077 4.59002 36.6249H4.58502ZM4.08502 37.6649V37.7399C4.09067 37.7607 4.09125 37.7826 4.08671 37.8036C4.08217 37.8247 4.07265 37.8444 4.05894 37.8611C4.04523 37.8777 4.02774 37.8908 4.00792 37.8993C3.9881 37.9078 3.96653 37.9114 3.94502 37.9099V37.8349C3.94502 37.7449 3.99169 37.6882 4.08502 37.6649ZM3.94502 39.8199H4.18502V39.9049C4.09928 39.9195 4.01754 39.9519 3.94502 39.9999H3.79002C3.79002 39.9199 3.83002 39.8599 3.93002 39.8299L3.94502 39.8199ZM10.84 37.6899C9.99308 38.0569 9.18838 38.5146 8.44002 39.0549C6.98335 39.5682 6.26169 39.8832 6.27502 39.9999C5.39149 40.3321 4.52832 40.7161 3.69002 41.1499C3.54161 41.1477 3.39588 41.11 3.26502 41.0399C3.25567 40.9089 3.28416 40.778 3.3471 40.6628C3.41004 40.5475 3.50477 40.4528 3.62002 40.3899C3.84406 40.3725 4.06896 40.4103 4.27502 40.4999C4.68109 40.3179 5.10506 40.1788 5.54002 40.0849V39.9249L5.04002 39.9649C5.47936 39.6924 5.94926 39.4725 6.44002 39.3099H6.68002V39.3849C6.26502 39.4199 6.03502 39.5449 5.98502 39.7599C5.98502 39.8599 6.05002 39.8999 6.15502 39.8899C6.46502 39.6949 6.62002 39.5799 6.61502 39.5449C7.20502 39.4316 8.84002 38.5766 11.52 36.9799V37.1249C11.52 37.1949 11.295 37.3899 10.835 37.7249L10.84 37.6899ZM6.73002 39.0399C7.10827 39.0096 7.4631 38.8446 7.73002 38.5749C7.84002 38.5749 7.90002 38.6099 7.90502 38.7049C7.51445 38.8087 7.14423 38.9777 6.81002 39.2049H6.73002V39.0499V39.0399ZM13.385 33.9499L11.33 35.5799C10.5433 36.1378 9.71788 36.6391 8.86002 37.0799C6.42669 38.4132 4.91502 39.1082 4.32502 39.1649H4.23502C4.30836 38.8916 5.39169 36.6732 7.48502 32.5099C8.98598 32.2683 10.4496 31.8348 11.84 31.2199L12.34 31.1799C12.7336 31.1096 13.1376 31.1246 13.5249 31.2238C13.9122 31.3229 14.2737 31.5041 14.585 31.7549L14.615 32.0599C14.245 33.1249 13.835 33.7499 13.395 33.9349L13.385 33.9499ZM9.38502 31.6899L9.71502 31.6599V31.7349L9.38502 31.7649V31.6899ZM14 30.9049H14.24C14.465 31.0099 14.58 31.1049 14.59 31.1899V31.2649C14.4685 31.2631 14.3496 31.2288 14.2459 31.1654C14.1421 31.1021 14.0572 31.0122 14 30.9049ZM14.655 27.1649C14.1209 27.6681 13.5303 28.1077 12.895 28.4749C12.58 28.5049 11.395 28.9749 9.36002 29.8549C9.25828 29.8087 9.14629 29.7898 9.03502 29.7999V29.6549C9.04609 29.2525 9.18437 28.8639 9.43002 28.5449C9.59002 27.7049 9.76002 27.2249 9.93002 27.1099L11.63 23.2849C11.61 23.0482 11.9734 22.8666 12.72 22.7399H12.96V22.9599C13.69 22.8499 14.15 22.7849 14.325 22.7699C15.675 22.6549 16.38 22.9299 16.435 23.5849H16.59L16.555 23.1999H16.725C16.89 23.2678 17.0351 23.3763 17.147 23.5153C17.2589 23.6543 17.3339 23.8192 17.365 23.9949C17.3494 24.2928 17.2269 24.575 17.02 24.7899C16.915 24.7899 16.855 24.7249 16.85 24.5749H16.68L16.645 25.0399C15.9617 26.0632 15.4617 26.5899 15.145 26.6199C14.865 27.0049 14.695 27.1999 14.645 27.1999L14.655 27.1649ZM15.7 29.8449C15.6043 29.7684 15.4873 29.723 15.365 29.7149V29.4849H15.52L15.86 29.6849C15.8657 29.7057 15.8662 29.7276 15.8617 29.7486C15.8572 29.7697 15.8477 29.7894 15.8339 29.8061C15.8202 29.8227 15.8027 29.8358 15.7829 29.8443C15.7631 29.8528 15.7415 29.8564 15.72 29.8549L15.7 29.8449ZM16.78 31.1249C16.93 31.1849 17.02 31.2499 17.035 31.3099H16.915L16.805 31.3999L16.775 31.0899L16.78 31.1249ZM16.88 31.7699V31.7099L17.075 31.6649V31.7249L16.88 31.7699ZM17.35 32.2949C17.55 32.2599 17.65 32.2499 18.02 32.1649V32.2249L17.31 32.3899C17.3116 32.3582 17.3116 32.3265 17.31 32.2949H17.35ZM18.04 32.5899C17.8002 32.595 17.5619 32.6286 17.33 32.6899V32.6299L17.925 32.4399L18.21 32.3749L18.24 32.4849C18.11 32.5149 18.205 32.5149 18.055 32.5899H18.04ZM18.67 32.4399C18.6533 32.4444 18.6358 32.4455 18.6186 32.4431C18.6014 32.4407 18.5849 32.435 18.57 32.4261C18.5551 32.4173 18.5421 32.4055 18.5318 32.3916C18.5215 32.3776 18.5141 32.3617 18.51 32.3449L18.69 32.3049C18.7061 32.2986 18.7235 32.2961 18.7407 32.2978C18.7579 32.2994 18.7745 32.3051 18.7891 32.3143C18.8037 32.3236 18.816 32.3362 18.8248 32.351C18.8336 32.3659 18.8389 32.3826 18.84 32.3999L18.67 32.4399V32.4399ZM20.375 30.6049V30.5449L20.67 30.4749L20.7 30.5849H20.39L20.375 30.6049ZM22.195 41.7749C22.2076 41.7139 22.2076 41.6509 22.195 41.5899H22.26C22.2751 41.5836 22.2914 41.5808 22.3076 41.5819C22.3239 41.583 22.3397 41.5879 22.3538 41.5961C22.3679 41.6044 22.3798 41.6158 22.3887 41.6295C22.3976 41.6431 22.4032 41.6587 22.405 41.6749V41.7349L22.165 41.7899L22.195 41.7749ZM23.5 31.0799H23.37C23.198 31.1515 23.0209 31.21 22.84 31.2549L22.72 31.2849C22.7043 31.2902 22.6876 31.2922 22.671 31.2908C22.6545 31.2893 22.6384 31.2844 22.6238 31.2764C22.6093 31.2685 22.5965 31.2575 22.5864 31.2443C22.5763 31.2312 22.569 31.216 22.565 31.1999L23.405 30.9999L23.685 30.8699L23.78 30.9749C23.6747 30.9896 23.5749 31.0309 23.49 31.0949L23.5 31.0799ZM24.155 30.8699V30.8099C24.217 30.7902 24.2723 30.7539 24.315 30.7049L24.92 30.5649V30.6249C24.6586 30.6829 24.4027 30.7632 24.155 30.8649V30.8699ZM24.25 29.6449C24.1869 29.6681 24.129 29.7038 24.08 29.7499C24.08 29.7099 23.985 29.7099 23.83 29.7499C23.8 29.6349 24.25 29.4699 25.175 29.2499L25.305 29.2199L25.335 29.3299C24.685 29.5199 24.335 29.6299 24.25 29.6399V29.6449ZM25.88 27.8849C25.815 28.6249 25.555 29.0449 25.095 29.1499V29.0899L24.685 29.2499L24.505 29.2899C24.4233 29.3132 24.3367 29.3132 24.255 29.2899L24.22 29.1249C24.7624 28.2708 25.3569 27.4509 26 26.6699H26.14C26.158 27.0818 26.0756 27.4919 25.9 27.8649L25.88 27.8849ZM28.765 25.4149H28.71V25.2999H28.95V25.3599C28.8871 25.3773 28.8267 25.4025 28.77 25.4349L28.765 25.4149ZM27.565 37.3449C27.4496 37.2842 27.3203 37.2549 27.19 37.2599V37.0849C27.19 37.0249 27.2267 36.9832 27.3 36.9599C27.38 36.9599 27.425 37.0049 27.435 37.1299C27.5302 36.9881 27.6427 36.8587 27.77 36.7449L27.895 36.7949C27.85 37.1499 27.74 37.3349 27.575 37.3499L27.565 37.3449ZM40.3 23.9999C40.24 23.9999 40.125 23.8199 39.94 23.4399V23.3249C40.055 23.3249 40.18 23.4949 40.3 23.8699V23.9999ZM40.13 22.6699L40.075 22.7899L38.35 22.0699C39.5 22.1049 40.095 22.3099 40.13 22.6699V22.6699ZM32.825 28.9649H32.585V28.8499H32.825V28.9649ZM32.625 25.1949H32.69V25.3699C32.63 25.3699 32.555 25.4532 32.465 25.6199V25.5049C32.5493 25.4214 32.6038 25.3125 32.62 25.1949H32.625ZM32.125 26.4049V26.6349H32.06V26.4049H32.125ZM31.85 26.8399H31.97C31.97 27.0366 31.9184 27.1382 31.815 27.1449H31.75C31.8091 27.0536 31.8436 26.9485 31.85 26.8399V26.8399ZM31.655 27.4349H31.71V27.4999L31.605 27.6849H31.485V27.6249C31.61 27.6249 31.665 27.5499 31.655 27.4349ZM31.45 27.9999L31.41 28.2999H31.35V28.0049H31.47L31.45 27.9999ZM29.45 33.6499C29.37 34.0399 29.2867 34.2399 29.2 34.2499V34.1999C29.1959 34.0946 29.2169 33.9898 29.2612 33.8941C29.3055 33.7985 29.372 33.7148 29.455 33.6499H29.45ZM29.08 34.4349V34.4849C29.085 34.5014 29.0859 34.5188 29.0825 34.5357C29.0792 34.5525 29.0718 34.5683 29.0609 34.5816C29.0501 34.595 29.0361 34.6054 29.0202 34.6121C29.0044 34.6188 28.9871 34.6214 28.97 34.6199V34.5599C28.97 34.4999 29.0067 34.4582 29.08 34.4349V34.4349ZM29 36.0549H29.185V36.1149C29.1213 36.1271 29.0603 36.1508 29.005 36.1849H28.885C28.885 36.1182 28.9217 36.0766 28.995 36.0599L29 36.0549ZM34.23 34.4399C33.59 34.7237 32.9788 35.0686 32.405 35.4699C31.285 35.8599 30.735 36.1049 30.74 36.1999C30.0733 36.4471 29.4221 36.7342 28.79 37.0599C28.6778 37.0551 28.5683 37.0243 28.47 36.9699C28.459 36.869 28.4789 36.7671 28.5271 36.6778C28.5753 36.5885 28.6496 36.516 28.74 36.4699C28.9103 36.4538 29.082 36.4795 29.24 36.5449C29.5513 36.4116 29.8744 36.3078 30.205 36.2349V36.1199L29.83 36.1549C30.1657 35.9465 30.5249 35.7787 30.9 35.6549H31.085V35.7049C30.77 35.7349 30.585 35.8249 30.555 35.9949C30.5546 36.0111 30.5578 36.0271 30.5646 36.0418C30.5714 36.0565 30.5814 36.0694 30.594 36.0796C30.6066 36.0898 30.6214 36.0969 30.6371 36.1004C30.6529 36.1039 30.6693 36.1037 30.685 36.0999C30.92 35.9449 31.03 35.8599 31.03 35.8299C31.4767 35.7499 32.7167 35.0999 34.75 33.8799V33.9949C34.75 34.0399 34.58 34.1899 34.25 34.4449L34.23 34.4399ZM31.11 35.4399C31.4013 35.4174 31.6755 35.2935 31.885 35.0899C31.965 35.0899 32.01 35.1199 32.015 35.1949C31.7218 35.2701 31.4419 35.3898 31.185 35.5499H31.12V35.4399H31.11ZM36.15 31.5699L34.6 32.8199C33.9984 33.2595 33.365 33.6539 32.705 33.9999C30.8617 34.9999 29.7134 35.5266 29.26 35.5799H29.195C29.2517 35.3699 30.0767 33.6866 31.67 30.5299C32.8096 30.338 33.9202 30.002 34.975 29.5299L35.35 29.4999C35.6487 29.4469 35.9553 29.4592 36.2488 29.536C36.5423 29.6128 36.8156 29.7523 37.05 29.9449V30.1749C36.785 30.9999 36.5 31.4499 36.14 31.5899L36.15 31.5699ZM33.105 29.8549H33.345V29.9149H33.105V29.8549ZM36.63 29.2549H36.815C36.985 29.3399 37.075 29.4149 37.08 29.4749V29.5249C36.9881 29.5284 36.8969 29.5064 36.8166 29.4614C36.7364 29.4164 36.6701 29.3502 36.625 29.2699L36.63 29.2549ZM37.13 26.4199C36.7272 26.804 36.2809 27.1396 35.8 27.4199C34.8721 27.7058 33.9691 28.067 33.1 28.4999C33.0216 28.4717 32.9382 28.4598 32.855 28.4649V28.3499C32.8571 28.0442 32.955 27.7469 33.135 27.4999C33.255 26.8549 33.39 26.4999 33.53 26.4149L34.835 23.4999C34.835 23.3299 35.095 23.1899 35.655 23.0799H35.84V23.2549C36.39 23.1649 36.735 23.1132 36.875 23.0999C37.875 23.0099 38.435 23.2149 38.48 23.7199H38.6V23.4399H38.72C38.8477 23.4858 38.9611 23.5645 39.0489 23.6681C39.1366 23.7716 39.1956 23.8964 39.22 24.0299C39.2123 24.2556 39.1256 24.4715 38.975 24.6399C38.895 24.6399 38.85 24.5949 38.84 24.4699H38.72L38.685 24.8199C38.125 25.5799 37.75 25.9999 37.5 25.9999C37.29 26.2849 37.16 26.4299 37.1 26.4349L37.13 26.4199ZM37.675 28.3599V28.1849H37.795L38.055 28.3449C38.0572 28.3605 38.0559 28.3765 38.0514 28.3916C38.0468 28.4067 38.0391 28.4207 38.0286 28.4326C38.0182 28.4444 38.0053 28.4539 37.9909 28.4603C37.9765 28.4668 37.9608 28.47 37.945 28.4699C37.871 28.4135 37.7827 28.3788 37.69 28.3699L37.675 28.3599ZM15.97 39.6949L15.85 39.7249L15.745 39.8149C15.7469 39.8311 15.7524 39.8467 15.7613 39.8603C15.7702 39.874 15.7822 39.8854 15.7963 39.8937C15.8103 39.9019 15.8261 39.9068 15.8424 39.9079C15.8587 39.9089 15.875 39.9062 15.89 39.8999C15.97 39.8999 16 39.8349 15.985 39.7599V39.6999L15.97 39.6949ZM15.5 38.7749V38.8349C15.58 38.8349 15.61 38.7699 15.595 38.6949V38.6349C15.5789 38.6365 15.5634 38.6415 15.5495 38.6498C15.5356 38.658 15.5237 38.6692 15.5147 38.6826C15.5056 38.696 15.4996 38.7112 15.4971 38.7271C15.4945 38.7431 15.4955 38.7594 15.5 38.7749V38.7749ZM18.8 32.5799L18.89 32.5249H18.845C18.8312 32.5284 18.8194 32.5372 18.8119 32.5493C18.8045 32.5614 18.802 32.576 18.805 32.5899L18.8 32.5799ZM18.8 30.9749L18.94 30.9399L18.91 30.8199L18.77 30.8549L18.8 30.9749ZM51.725 35.6799L51.41 35.6449L51.355 35.7649V35.8249L53.24 35.6649V35.5499L51.74 35.6799H51.725ZM53.45 35.5349V35.6499V35.5349ZM61.35 34.4999V34.6149L61.555 34.6499V34.5349L61.35 34.4999ZM61.06 34.4999C60.444 34.6714 59.8093 34.7671 59.17 34.7849V34.8999H59.37L59.525 34.8399C60.925 34.6849 61.09 34.7399 61.075 34.5849V34.4999H61.06ZM52.56 32.4399L52.435 32.3999C52.3644 32.5597 52.314 32.7276 52.285 32.8999V32.9499C52.385 32.9499 52.47 32.7799 52.555 32.4499L52.56 32.4399ZM50.855 31.5199V31.4999H50.79L50.675 31.5749L50.74 31.6849C50.83 31.6849 50.87 31.6349 50.86 31.5549L50.855 31.5199ZM54.56 35.3499V35.2349H54.5V35.3499H54.56ZM62.245 33.6149H62.335C62.385 33.6149 62.41 33.5699 62.405 33.4949L62.355 33.3849C62.0999 33.3835 61.8487 33.4472 61.625 33.5699V33.5099L61.24 33.5449C61.24 33.4299 61.2 33.3699 61.145 33.3749H60.945C60.71 33.3749 60.6 33.3749 60.485 33.4749C60.485 33.4349 60.485 33.4149 60.445 33.4149H60.22L60.09 33.4899C60.09 33.4499 60.09 33.4299 60.05 33.4299L59.97 33.4999H59.585V33.6149L59.745 33.6549H59.895C59.9463 33.685 60.006 33.6973 60.065 33.6899L60.195 33.6249V33.6749C59.7906 33.7801 59.3797 33.8586 58.965 33.9099C58.9298 33.8803 58.886 33.8627 58.84 33.8599C58.8269 33.8593 58.814 33.856 58.8021 33.8504C58.7902 33.8448 58.7796 33.8369 58.7707 33.8271C58.7619 33.8173 58.7551 33.806 58.7507 33.7936C58.7463 33.7812 58.7443 33.768 58.745 33.7549L59.005 33.7199C59.0625 33.7382 59.1209 33.7532 59.18 33.7649C59.39 33.6599 59.4 33.6199 59.51 33.6099V33.4949C59.0712 33.5755 58.6262 33.6174 58.18 33.6199H58.14V33.5049C59.295 33.3649 58.91 33.4449 59.305 33.3349C59.305 33.3749 59.305 33.3949 59.345 33.3949C59.3877 33.3508 59.4441 33.3226 59.505 33.3149H59.585C60.0382 33.3287 60.4906 33.2697 60.925 33.1399V33.1899L61.055 33.1249H61.175C61.175 33.0099 61.345 32.9899 61.405 32.9849V32.8599C60 33.1449 59.63 33.0649 59.24 33.1749V33.1249C59.0762 33.1628 58.9078 33.1763 58.74 33.1649C58.6953 33.1784 58.6554 33.2044 58.625 33.2399C58.625 33.1999 58.625 33.1799 58.58 33.1799L57.385 33.3749C57.385 33.3399 57.385 33.3249 57.34 33.3299C56.9228 33.4521 56.4937 33.5292 56.06 33.5599C56.0042 33.57 55.9513 33.5922 55.905 33.6249C55.905 33.5899 55.905 33.5749 55.84 33.5799L55.34 33.6199L55 33.7049C55 33.6699 55 33.6549 54.935 33.6599C54.7717 33.7072 54.6043 33.739 54.435 33.7549C54.35 33.7549 54.475 33.7549 54.435 33.7049L54.33 33.7649H53.75C52.85 33.8749 52.95 33.8899 52.85 33.8949H52.515C52.5167 33.902 52.5167 33.9094 52.5148 33.9165C52.513 33.9236 52.5095 33.9302 52.5045 33.9356C52.4996 33.941 52.4934 33.9452 52.4866 33.9476C52.4797 33.9501 52.4723 33.9509 52.465 33.9499C52.085 33.8999 51.885 33.8399 51.885 33.7699C51.935 33.4066 52.0234 33.2199 52.15 33.2099H52.215L52.16 33.3299H52.225C52.345 33.2649 52.4 33.2049 52.395 33.1499V33.0249H52.275V32.9099C52.2638 32.8298 52.276 32.7482 52.31 32.6749L52.585 32.2299V32.3449H52.715V32.2299L52.64 32.1249C52.7044 32.0591 52.7858 32.0124 52.875 31.9899V31.9299H52.7V31.7549C52.9252 31.3517 53.0935 30.9193 53.2 30.4699L53.325 30.5199C53.405 30.5199 53.44 30.4699 53.435 30.3849H53.315V30.3349C53.3064 30.2506 53.322 30.1656 53.36 30.0899C53.4455 30.0136 53.5131 29.9193 53.5581 29.8139C53.603 29.7085 53.6242 29.5944 53.62 29.4799C53.655 29.4799 53.675 29.4799 53.68 29.5349C53.845 29.4399 53.97 29.1949 54.06 28.7849C54.5459 27.7741 54.9587 26.7298 55.295 25.6599C56.32 22.8999 56.295 22.6099 56.42 21.9549H56.3C56.3091 22.0376 56.2935 22.1211 56.255 22.1949C56.1937 22.1669 56.1274 22.1516 56.06 22.1499V22.0999C56.065 21.7891 56.1722 21.4887 56.365 21.2449H56.42L56.525 21.6449H56.645C56.665 21.4762 56.6968 21.3091 56.74 21.1449C56.74 21.0849 56.69 21.0449 56.595 21.0399L56.48 21.1149V20.4649H56.42C56.3393 20.4005 56.2829 20.3106 56.26 20.2099L55.595 20.2749C55.5826 20.2026 55.5571 20.1332 55.52 20.0699C55.52 20.0099 55.665 19.9499 55.97 19.8899L56.105 19.9399L56.23 19.8649C56.23 19.9049 56.26 19.9249 56.305 19.9199L56.43 19.8449C56.43 19.8849 56.46 19.9049 56.505 19.8999H56.565V19.7649H55.835L55.71 19.8499V19.7749C52.5834 20.0316 50.8084 20.1799 50.385 20.2199H49.725C49.725 20.2699 49.685 20.2999 49.59 20.3099L49.455 20.2499L49 20.3649C48.8204 20.381 48.6397 20.381 48.46 20.3649C48.387 20.4231 48.2981 20.4579 48.205 20.4649L49.54 20.3799C49.4439 20.4451 49.3311 20.4816 49.215 20.4849C49.1242 20.4972 49.0317 20.4815 48.95 20.4399C48.6224 20.5408 48.2883 20.6193 47.95 20.6749L47.815 20.6249L45.635 20.9599C45.5428 20.9177 45.4406 20.9022 45.34 20.9149C45.1436 20.9406 44.9496 20.9824 44.76 21.0399L43.705 21.4799L43.785 21.6099C43.8616 21.5961 43.9347 21.5672 44 21.5249L44.375 21.5599L44.33 21.9099C44.1709 21.9389 44.022 22.0084 43.8976 22.1117C43.7732 22.2151 43.6776 22.3488 43.62 22.4999C43.12 22.7299 42.845 22.8899 42.845 22.9999V23.0599H42.925L43.065 22.9849L43.23 23.1799V23.4499C43.23 23.5332 42.3617 25.3666 40.625 28.9499C39.125 32.3999 38.325 34.2849 38.25 34.6249C37.75 34.7699 37.435 34.9799 37.345 35.2599C37.345 35.3499 37.51 35.4099 37.805 35.4299V35.5649L37.67 35.7899V36.0599C37.67 36.1999 38.0467 36.3066 38.8 36.3799C38.8 36.3349 38.8 36.3049 38.87 36.2999C38.8649 36.6377 38.8179 36.9736 38.73 37.2999H38.81C39.036 37.0593 39.1886 36.7592 39.25 36.4349H39.315C39.39 36.4349 39.47 36.5149 39.56 36.6949C39.4667 36.7316 39.1334 37.4732 38.56 38.9199L38.64 39.0499H38.72C39.4034 37.3166 39.8334 36.3582 40.01 36.1749C40.91 36.0949 42.465 35.9282 44.675 35.6749L44.815 35.5899C44.8145 35.6004 44.8166 35.6109 44.821 35.6204C44.8254 35.63 44.8321 35.6383 44.8405 35.6447C44.8488 35.6511 44.8586 35.6554 44.869 35.6571C44.8794 35.6589 44.89 35.6581 44.9 35.6549H45.045L45.185 35.5699C45.1845 35.5804 45.1866 35.5909 45.191 35.6004C45.1954 35.61 45.2021 35.6183 45.2105 35.6247C45.2188 35.6311 45.2286 35.6354 45.239 35.6371C45.2494 35.6389 45.26 35.6381 45.27 35.6349L47 35.4349C47.445 35.3999 47.65 35.2649 47.635 35.0349C47.635 34.9749 47.89 34.9049 48.42 34.8299C48.4985 34.829 48.5765 34.8426 48.65 34.8699C48.65 34.8299 48.91 34.7849 49.44 34.7399C49.44 34.4599 49.54 34.3099 49.7 34.2949V34.1599C49.5296 34.1796 49.3619 34.2182 49.2 34.2749C48.9761 34.2721 48.7532 34.2453 48.535 34.1949C48.4694 34.2366 48.3964 34.2654 48.32 34.2799L47.155 34.3149L47.015 34.3899C47.015 34.3466 46.9867 34.3282 46.93 34.3349H46.865L46.715 34.4099C46.715 34.3699 46.59 34.3349 46.345 34.3049L46.195 34.3949H45.905V34.3499C47.405 34.1866 48.145 33.9832 48.125 33.7399C48.1448 33.7351 48.1655 33.7351 48.1853 33.7398C48.2051 33.7445 48.2236 33.7538 48.2391 33.767C48.2547 33.7801 48.267 33.7967 48.2749 33.8155C48.2829 33.8342 48.2864 33.8546 48.285 33.8749L48.725 33.7649V33.6299L45.135 33.7299C45.135 33.7749 45.135 33.8049 45.065 33.8099L44.625 33.7749C44.5241 33.7808 44.4269 33.8155 44.345 33.8749L44.18 33.8149C43.842 33.8359 43.5069 33.8912 43.18 33.9799C42.8472 33.9537 42.5128 33.9537 42.18 33.9799L41.375 34.0499L40.95 33.9999C40.95 33.7599 41.395 32.5949 42.345 30.4999C42.4857 30.0018 42.7507 29.5476 43.115 29.1799C43.1948 29.181 43.2734 29.1998 43.345 29.2349L43.92 29.0399L44.215 29.0849C44.8063 29.0201 45.3863 28.8772 45.94 28.6599C46.066 28.6419 46.1945 28.6539 46.315 28.6949L46.755 28.5899L48.045 28.4999C48.6598 28.4415 49.2666 28.3175 49.855 28.1299V27.9949C49.615 27.9949 49.485 27.9949 49.48 27.8799C49.48 27.6999 49.29 27.6249 48.95 27.6499V27.5149L49.31 27.4099L50.25 27.3299V27.1949H49.67V27.0499L50.035 27.0149C50.135 27.0149 50.175 26.9599 50.165 26.8649C49.665 26.8649 49.43 26.8649 49.425 26.7899C46.015 26.9566 44.305 26.9882 44.295 26.8849C44.2177 26.9017 44.1445 26.934 44.08 26.9799L43.99 26.8399C44.8934 24.9199 45.4234 23.9532 45.58 23.9399C45.5709 24.0666 45.5333 24.1897 45.47 24.2999V24.3599H45.615C45.975 23.5049 46.275 23.0599 46.53 23.0399C47.6 22.9449 46.38 22.8749 48.675 22.5399C48.7379 22.5745 48.8083 22.5934 48.88 22.5949C49.78 22.4116 51.0334 22.2216 52.64 22.0249V21.8899L51.785 21.9699V21.8349C51.8781 21.8279 51.967 21.7931 52.04 21.7349V21.8099C52.1112 21.7929 52.1778 21.7604 52.235 21.7149C52.3499 21.6958 52.4678 21.7096 52.575 21.7549C52.8111 21.6888 53.0518 21.6404 53.295 21.6099L53.83 21.5599C53.96 21.4749 54.02 21.3999 54.015 21.3299V21.2699C53.8577 21.2819 53.6995 21.2718 53.545 21.2399C53.5429 21.2221 53.5444 21.2042 53.5493 21.187C53.5542 21.1698 53.5625 21.1538 53.5737 21.1398C53.5848 21.1259 53.5987 21.1143 53.6143 21.1057C53.63 21.0971 53.6473 21.0918 53.665 21.0899L54.665 20.9949L55.12 20.8799C55.12 20.9299 55.15 20.9499 55.185 20.9499C55.2562 20.9329 55.3228 20.9004 55.38 20.8549H55.455C55.3743 21.0311 55.3074 21.2133 55.255 21.3999H55.125C55.1182 21.3153 55.0926 21.2333 55.05 21.1599H54.985C53.775 24.5349 53.235 26.1049 52.115 28.6949C51.91 29.3549 51.74 29.7249 51.59 29.8049C51.5896 29.8211 51.5928 29.8371 51.5996 29.8518C51.6064 29.8665 51.6164 29.8794 51.629 29.8896C51.6416 29.8998 51.6563 29.9069 51.6721 29.9104C51.6879 29.9139 51.7043 29.9138 51.72 29.9099C51.7458 30.2477 51.6654 30.5851 51.49 30.8749C50.99 32.3749 50.63 33.1799 50.45 33.3299L50.5 33.9999C50.5022 34.0155 50.5009 34.0315 50.4964 34.0466C50.4918 34.0617 50.4841 34.0757 50.4736 34.0876C50.4632 34.0994 50.4503 34.1089 50.4359 34.1153C50.4215 34.1218 50.4058 34.125 50.39 34.1249H50.27C50.27 33.9299 50.18 33.8349 50.055 33.8499H49.99C49.8223 34.1142 49.7006 34.4049 49.63 34.7099H49.75C49.8195 34.6755 49.8776 34.6218 49.9175 34.5554C49.9574 34.4889 49.9773 34.4124 49.975 34.3349H50.215L50.355 34.3849C50.2606 34.5071 50.2064 34.6556 50.2 34.8099L50.265 34.9199L50.105 35.2949V35.3549C50.2667 35.3483 50.4262 35.3939 50.56 35.4849C50.6939 35.4663 50.821 35.4148 50.93 35.3349H52.49L52.94 35.1799C53.312 35.1881 53.6842 35.1764 54.055 35.1449H54.25L54.355 35.0749V35.1349C54.6617 35.1 54.9719 35.1118 55.275 35.1699V35.2299H55V35.3449C55.0803 35.3396 55.1571 35.31 55.22 35.2599C55.29 35.2599 55.33 35.2949 55.335 35.3749C55.2071 35.3884 55.0813 35.417 54.96 35.4599L54.84 35.4199C54.65 35.4699 54.69 35.4849 54.56 35.4949L54.37 35.4599C54.3715 35.4666 54.3715 35.4735 54.37 35.4802C54.3684 35.4869 54.3653 35.4931 54.361 35.4984C54.3566 35.5037 54.3511 35.508 54.3449 35.5108C54.3387 35.5137 54.3319 35.5151 54.325 35.5149C54.3241 35.5298 54.3265 35.5447 54.3321 35.5586C54.3377 35.5724 54.3464 35.5848 54.3574 35.5949C54.3684 35.605 54.3816 35.6124 54.3959 35.6168C54.4102 35.6211 54.4253 35.6222 54.44 35.6199H54.635L55.635 35.5299L56.02 35.4449C56.02 35.4799 56.02 35.4949 56.07 35.4899L56.255 35.4199L56.605 35.3899C56.875 35.3899 56.87 35.3499 57.46 35.2549C57.46 35.2199 57.46 35.2049 57.495 35.1999V35.2499C57.9021 35.1954 58.3048 35.1119 58.7 34.9999V35.0299C58.94 34.9749 58.805 34.9899 58.87 34.9399C58.87 34.9799 58.87 34.9999 58.91 34.9999H59.08V34.8749H58.66C58.5348 34.8984 58.4074 34.9084 58.28 34.9049L57.425 34.9499V34.8899L57.925 34.8249H58.095L58.195 34.7549V34.8149C58.865 34.7599 59.105 34.9249 62.195 34.2649C62.365 34.2649 62.35 34.1099 62.455 33.8199C62.3978 33.8248 62.3403 33.8126 62.29 33.7849C61.9997 33.8554 61.7034 33.8989 61.405 33.9149C61.365 33.9149 61.33 33.8799 61.315 33.8099V33.7599H61.815C61.9922 33.7411 62.163 33.683 62.315 33.5899C62.315 33.6299 62.215 33.6549 62.275 33.6499L62.245 33.6149ZM39.305 33.9999H39.085C39.1583 33.6529 39.2759 33.3168 39.435 32.9999H39.58C39.5344 33.3442 39.4418 33.6807 39.305 33.9999V33.9999ZM39.57 32.9399V32.8799C39.57 32.8049 39.61 32.7549 39.715 32.7299V32.7899C39.715 32.8799 39.675 32.9299 39.57 32.9399ZM42.5 35.1999V35.2599L42.135 35.2949V35.2349L42.5 35.1999ZM42.06 35.1649C42.06 35.2399 41.955 35.3249 41.71 35.4049L41.265 35.3699H41.12V35.2349L42.075 35.1449L42.06 35.1649ZM45 21.6099H44.78V21.5349C44.78 21.4599 44.815 21.4099 44.91 21.3849H44.99L45.14 21.4449C45.143 21.464 45.1417 21.4835 45.1362 21.5021C45.1307 21.5206 45.1212 21.5377 45.1082 21.552C45.0953 21.5664 45.0793 21.5777 45.0615 21.5851C45.0436 21.5925 45.0243 21.5959 45.005 21.5949L45 21.6099ZM48.33 20.9599H48.4V21.0949H48.2C48.1979 21.0771 48.1994 21.0592 48.2043 21.042C48.2092 21.0248 48.2175 21.0088 48.2287 20.9948C48.2398 20.9809 48.2537 20.9693 48.2693 20.9607C48.285 20.9521 48.3023 20.9468 48.32 20.9449L48.33 20.9599ZM47.5 21.2499L47.17 21.2149V21.1499C47.4516 21.1328 47.7302 21.0825 48 20.9999C48 21.0499 48.05 21.0699 48.135 21.0599V21.1949H48.005C47.9142 21.2072 47.8217 21.1915 47.74 21.1499C47.6639 21.2017 47.5764 21.2343 47.485 21.2449L47.5 21.2499ZM47.915 22.4549V22.3949L48.45 22.3449V22.4049L47.915 22.4549ZM48.47 21.9999V21.9249H48.73V21.9999H48.47ZM48.53 21.0849H48.46L48.52 20.9399L49.115 20.8849V20.9599C48.9154 20.9833 48.718 21.0235 48.525 21.0799L48.53 21.0849ZM48.835 22.3699V22.2349H49.095C49.185 22.2349 49.2317 22.2766 49.235 22.3599L48.845 22.3949L48.835 22.3699ZM50.415 20.2199L50.08 20.3149H50C49.7988 20.3327 49.5963 20.3327 49.395 20.3149C49.83 20.2849 50.245 20.2549 50.395 20.2299L50.415 20.2199ZM50.055 21.7199V21.7799L49.595 21.8199V21.7599L50.055 21.7199ZM50.81 22.0799C50.81 22.0249 50.715 21.9849 50.535 21.9699L50.075 22.0999H49.72C49.64 22.0449 49.6 22.0049 49.595 21.9799H50.005L50.925 21.8299H51.395V21.9049C51.1944 21.9223 50.9965 21.9625 50.805 22.0249L50.81 22.0799ZM55.555 20.8549H55.66C55.8197 20.696 56.008 20.5688 56.215 20.4799C56.1125 21.0879 55.8404 21.6547 55.43 22.1149L55.17 21.9549C55.3238 21.5942 55.4524 21.2233 55.555 20.8449V20.8549ZM54.755 22.2299H54.82C54.73 22.3999 54.65 22.4849 54.585 22.4899V22.3149C54.6508 22.3039 54.7127 22.2763 54.765 22.2349L54.755 22.2299ZM54.255 23.4649C54.2951 23.1509 54.4195 22.8537 54.615 22.6049V22.6649C54.55 23.1299 54.445 23.3799 54.31 23.3949V23.6899C54.2185 23.7949 54.1624 23.9261 54.15 24.0649H54.085L54.05 23.6599C54.125 23.6599 54.185 23.5849 54.225 23.4649H54.255ZM54.055 24.1349C54.0357 24.3075 53.9902 24.4761 53.92 24.6349H53.855V24.4599C53.945 24.2549 54.02 24.1499 54.07 24.1499L54.055 24.1349ZM50.295 35.0449V34.9949H50.415V35.1699C50.35 35.1699 50.305 35.1349 50.285 35.0549L50.295 35.0449ZM55.665 35.1849C55.665 35.1449 55.665 35.1249 55.6 35.1299L55.295 35.1599V35.0999H55.325L56 34.9999V35.0599C55.8687 35.05 55.7375 35.0814 55.625 35.1499L55.665 35.1849ZM55.305 35.0349C55.335 35.0349 55.305 35.0649 55.305 35.0699C55.305 35.0749 55.27 35.0699 55.305 35.0349ZM55.34 34.1949L54.94 34.2299V34.1499L55.305 34.1149L55.62 34.0349C55.62 34.0699 55.62 34.0849 55.685 34.0799C56.06 34.0149 56.025 33.9949 56.185 33.9799C56.245 33.9799 56.285 34.0149 56.29 34.0849L55.325 34.1699L55.34 34.1949ZM56.74 34.0749C56.6101 34.0485 56.4774 34.0384 56.345 34.0449V33.9999L56.705 33.9649V33.9999C56.67 33.9999 56.805 33.9999 56.74 34.0599V34.0749ZM56.77 34.0099V33.9599H56.965V34.0099H56.77ZM57.205 33.9749V33.9249C57.257 33.9113 57.3049 33.8856 57.345 33.8499C57.3642 33.8471 57.3837 33.8483 57.4024 33.8534C57.4211 33.8586 57.4385 33.8675 57.4536 33.8798C57.4686 33.892 57.4809 33.9072 57.4898 33.9244C57.4987 33.9417 57.5038 33.9606 57.505 33.9799L57.205 33.9749ZM57.76 33.9049V33.8449H58V33.9049H57.76ZM58.09 33.8749C58.09 33.8049 58.09 33.7649 58.175 33.7549L58.255 33.8599C58.2536 33.854 58.2533 33.8478 58.2543 33.8418C58.2553 33.8358 58.2575 33.83 58.2607 33.8249C58.264 33.8197 58.2683 33.8153 58.2733 33.8119C58.2784 33.8084 58.284 33.8061 58.29 33.8049L58.35 33.9149L58.09 33.8799V33.8749ZM62.76 33.2749C62.795 33.2749 62.815 33.2299 62.725 33.2149C62.635 33.1999 62.77 33.2749 62.68 33.2799V33.3199L62.73 33.2849L62.68 33.3249L62.58 33.4499L62.775 33.3799V33.2649L62.76 33.2749ZM63.1 33.5399H63.065V33.6549H63.34C63.34 33.5799 63.155 33.5549 63.095 33.5549L63.1 33.5399Z" fill="#F9DC3E"/>
</svg>
