<svg width="64" height="64" viewBox="0 0 64 64" fill="none" xmlns="http://www.w3.org/2000/svg">
<path d="M29 29.7635L14.297 17.3185C13.4936 16.647 12.5103 16.2269 11.4697 16.1103C10.4292 15.9938 9.37733 16.186 8.44525 16.663C7.51317 17.1401 6.74207 17.8809 6.22804 18.7931C5.714 19.7053 5.47976 20.7486 5.55451 21.793C5.62973 22.8379 6.0111 23.8375 6.65098 24.6669C7.29087 25.4964 8.16092 26.119 9.15251 26.457H9.205L9.34351 26.5L27.8905 32.1485C28.0235 32.1975 28.166 32.2225 28.3085 32.2245C28.5967 32.2227 28.8765 32.1271 29.1056 31.9522C29.3347 31.7773 29.5006 31.5326 29.5782 31.2551C29.6559 30.9775 29.6411 30.6822 29.536 30.4138C29.431 30.1455 29.2414 29.9186 28.996 29.7675L29 29.7635Z" fill="url(#paint0_linear_77_838)"/>
<path d="M31.9475 9.21901C31.9514 8.5191 31.7655 7.83121 31.4098 7.22846C31.054 6.62572 30.5415 6.13063 29.9268 5.79584C29.3122 5.46105 28.6183 5.29906 27.9189 5.32708C27.2196 5.35511 26.5409 5.57211 25.955 5.95501L7.99998 16.857C7.18349 17.3887 6.52837 18.1341 6.10586 19.0121C5.68334 19.8901 5.50959 20.8672 5.60348 21.837C5.69755 22.8066 6.05531 23.732 6.63796 24.5127C7.2206 25.2934 8.0059 25.8997 8.90866 26.2658C9.81143 26.6319 10.7972 26.7438 11.7591 26.5894C12.7209 26.435 13.6221 26.0202 14.365 25.39L30.461 12.273L30.588 12.1675C31.0136 11.8028 31.3554 11.3506 31.59 10.8416C31.8247 10.3326 31.9466 9.77896 31.9475 9.21851V9.21901Z" fill="url(#paint1_linear_77_838)"/>
<path d="M58.0585 32.7111L30.8165 6.4746C30.3232 5.97986 29.7055 5.62744 29.0286 5.45451C28.3517 5.28159 27.6407 5.29457 26.9705 5.4921C26.3005 5.68991 25.6962 6.0649 25.2215 6.57751C24.7469 7.09012 24.4193 7.72135 24.2735 8.4046C24.1282 9.08828 24.1702 9.79851 24.3951 10.4603C24.6199 11.1221 25.0193 11.7109 25.551 12.1646L25.5995 12.2071L54.543 36.5901C54.9247 36.9104 55.39 37.1151 55.884 37.1801C56.3781 37.2451 56.8804 37.1678 57.332 36.9571C57.7835 36.7457 58.1653 36.4101 58.4327 35.9894C58.7002 35.5688 58.8422 35.0806 58.842 34.5821C58.8412 34.234 58.7715 33.8895 58.6371 33.5684C58.5026 33.2473 58.306 32.9559 58.0585 32.7111Z" fill="url(#paint2_linear_77_838)"/>
<path d="M58.844 34.592C58.8475 34.1086 58.7168 33.6336 58.4664 33.22C58.216 32.8065 57.8559 32.4704 57.4259 32.2494C56.9959 32.0283 56.5131 31.9309 56.031 31.9679C55.549 32.0049 55.0867 32.1749 54.6955 32.459L21.7325 48.564C21.075 48.8942 20.4928 49.3568 20.0227 49.9228C19.5526 50.4888 19.2047 51.146 19.0008 51.8529C18.797 52.5599 18.7416 53.3014 18.8381 54.0308C18.9347 54.7603 19.1811 55.4618 19.5619 56.0914C19.9427 56.721 20.4496 57.265 21.0508 57.6892C21.652 58.1134 22.3344 58.4086 23.0552 58.5563C23.776 58.704 24.5196 58.701 25.2392 58.5474C25.9588 58.3939 26.6388 58.0931 27.2365 57.664L57.7165 36.742C58.0648 36.5021 58.3494 36.1809 58.5457 35.8063C58.7421 35.4317 58.8443 35.015 58.8435 34.592H58.844Z" fill="url(#paint3_linear_77_838)"/>
<path d="M21.334 21.334H42.666V42.666H21.334V21.334Z" fill="black"/>
<path d="M23.6545 38.6661H31.6545V40.0001H23.6545V38.6661ZM23.32 26.8341L23.914 26.2716C24.029 26.4531 24.2225 26.5686 24.4375 26.5821C24.664 26.5821 24.8145 26.4221 24.8145 26.1116V24.0081H25.7325V26.1191C25.746 26.2892 25.7238 26.4603 25.6673 26.6214C25.6108 26.7825 25.5213 26.9301 25.4045 27.0546C25.2837 27.1721 25.1405 27.2642 24.9834 27.3253C24.8263 27.3864 24.6585 27.4152 24.49 27.4101C24.2625 27.4186 24.0365 27.3704 23.8322 27.2699C23.628 27.1693 23.452 27.0196 23.32 26.8341V26.8341ZM26.145 24.0081H28.8225V24.7851H27.0425V25.2951H28.6405V26.0061H27.0585V26.5351H28.836V27.3166H26.133L26.145 24.0081ZM30.127 24.8146H29.131V24.0081H32.049V24.8146H31.051V27.3361H30.127V24.8146ZM23.6915 28.6501H25.2615C25.4246 28.6367 25.5887 28.6559 25.7444 28.7066C25.9 28.7572 26.044 28.8383 26.168 28.9451C26.3125 29.0901 26.3905 29.2831 26.3865 29.4866C26.3885 29.6484 26.34 29.8069 26.2477 29.9399C26.1554 30.0729 26.0239 30.1738 25.8715 30.2286C26.2615 30.3011 26.541 30.6466 26.5315 31.0431C26.5315 31.6446 26.0665 32.0001 25.2695 32.0001H23.6915V28.6501ZM25.4685 29.6776C25.4685 29.4941 25.3185 29.3946 25.0485 29.3946H24.59V29.9766H25.035C25.3125 29.9766 25.475 29.8811 25.475 29.6896L25.4685 29.6776ZM25.1485 30.6231H24.59V31.2381H25.166C25.451 31.2381 25.6075 31.1291 25.6075 30.9336C25.5995 30.7441 25.465 30.6236 25.156 30.6236L25.1485 30.6231ZM26.826 28.6501H28.3025C28.6975 28.6191 29.0875 28.7461 29.3865 29.0061C29.588 29.2131 29.6955 29.4941 29.6815 29.7811C29.6881 30.0022 29.6257 30.22 29.5029 30.4041C29.3802 30.5882 29.2032 30.7296 28.9965 30.8086L29.7925 32.0001H28.724L28.052 30.9901H27.7435V32.0001H26.82L26.826 28.6501ZM28.248 30.2501C28.5585 30.2501 28.746 30.0976 28.746 29.8516C28.746 29.5861 28.551 29.4516 28.246 29.4516H27.752V30.2581L28.248 30.2501Z" fill="white"/>
<path d="M30.965 28.6251H31.8535L33.2775 31.9826H32.285L32.047 31.3811H30.756L30.5175 32.0001H29.555L30.965 28.6251ZM31.775 30.6641L31.4025 29.7206L31.0255 30.6641H31.775ZM33.422 28.6406H34.3455V31.9706H33.422V28.6406ZM34.6875 28.6406H35.5545L36.754 30.4181V28.6401H37.668V31.9701H36.8615L35.605 30.1451V31.9711H34.687L34.6875 28.6406ZM37.82 31.4766L38.332 30.8616C38.6317 31.1126 39.0077 31.2543 39.3985 31.2636C39.6525 31.2636 39.7835 31.1761 39.7835 31.0336C39.7835 30.8866 39.676 30.8166 39.2185 30.7091C38.506 30.5451 37.963 30.3536 37.963 29.6681C37.963 29.0491 38.453 28.6016 39.254 28.6016C39.7484 28.5829 40.2334 28.7401 40.623 29.0451L40.178 29.6776C39.9088 29.4747 39.583 29.3608 39.246 29.3516C39.0215 29.3516 38.912 29.4396 38.912 29.5646C38.912 29.7171 39.0255 29.7851 39.492 29.8886C40.256 30.0546 40.7285 30.3046 40.7285 30.9261C40.7285 31.6056 40.1915 31.9921 39.385 31.9921C38.8179 32.0175 38.2611 31.8343 37.82 31.4771V31.4766Z" fill="white"/>
<defs>
<linearGradient id="paint0_linear_77_838" x1="11.6053" y1="21.7457" x2="29.4293" y2="30.4141" gradientUnits="userSpaceOnUse">
<stop offset="0.21" stop-color="#FE2857"/>
<stop offset="1" stop-color="#293896"/>
</linearGradient>
<linearGradient id="paint1_linear_77_838" x1="6.17953" y1="24.8391" x2="29.4933" y2="7.54844" gradientUnits="userSpaceOnUse">
<stop stop-color="#FE2857"/>
<stop offset="0.01" stop-color="#FE2857"/>
<stop offset="0.86" stop-color="#FF318C"/>
</linearGradient>
<linearGradient id="paint2_linear_77_838" x1="26.3715" y1="7.67297" x2="56.9848" y2="35.4703" gradientUnits="userSpaceOnUse">
<stop offset="0.02" stop-color="#FF318C"/>
<stop offset="0.21" stop-color="#FE2857"/>
<stop offset="0.86" stop-color="#FDB60D"/>
</linearGradient>
<linearGradient id="paint3_linear_77_838" x1="55.2746" y1="31.9289" x2="19.5804" y2="56.4977" gradientUnits="userSpaceOnUse">
<stop offset="0.01" stop-color="#FDB60D"/>
<stop offset="0.86" stop-color="#FCF84A"/>
</linearGradient>
</defs>
</svg>
