<svg width="64" height="64" viewBox="0 0 64 64" fill="none" xmlns="http://www.w3.org/2000/svg">
<path d="M5.97502 12.1741C3.05702 12.1741 0.666016 14.6076 0.666016 17.5146V46.4856C0.666016 49.3926 3.05702 51.8261 5.97452 51.8261H58.0255C60.943 51.8261 63.334 49.3926 63.334 46.4856V17.5151C63.334 14.6081 60.9425 12.1746 58.0255 12.1746H7.44902L7.44802 12.1736H5.97502V12.1741ZM5.97152 16.9456H58.0255C58.338 16.9456 58.5635 17.1571 58.5635 17.5156V46.4856C58.5635 46.8441 58.337 47.0556 58.0255 47.0556H5.97452C5.66302 47.0556 5.43652 46.8441 5.43652 46.4856V17.5146C5.43652 17.1571 5.66202 16.9471 5.97152 16.9456V16.9456Z" fill="black"/>
<path d="M10.3605 42.0499V21.95H16.21L22.0585 29.34L27.905 21.95H33.753V42.0499H27.905V30.5219L22.058 37.9119L16.209 30.5219V42.0499H10.361H10.3605ZM46.9125 42.0499L38.14 32.2955H43.9885V21.95H49.8375V32.2949H55.6865L46.9125 42.0499Z" fill="black"/>
</svg>
