<svg width="64" height="64" viewBox="0 0 64 64" fill="none" xmlns="http://www.w3.org/2000/svg">
<path d="M44.345 44.0551C39.845 53.2551 31.965 59.4451 21.54 61.4801C19.9416 61.8717 18.3007 62.0632 16.655 62.0501C10.655 62.0501 5.15503 59.5501 2.48503 55.4551C-1.09997 50.0001 -2.31997 38.4351 9.50003 29.8801C9.74003 31.1851 10.23 32.9751 10.555 34.0351C8.23469 35.759 6.33541 37.9865 5.00003 40.5501C2.80003 44.8701 3.04503 49.1851 5.65003 53.1751C7.45003 55.8651 10.3 57.5001 13.965 58.0001C18.5427 58.5795 23.1867 57.705 27.24 55.5001C33.595 52.1601 37.83 48.1701 40.6 42.7151C39.8168 41.9057 39.3532 40.84 39.295 39.7151C39.2532 38.5081 39.6919 37.3337 40.5149 36.4497C41.3379 35.5658 42.4781 35.0444 43.685 35.0001H43.855C45.029 34.9942 46.1603 35.4399 47.0149 36.2449C47.8695 37.0498 48.3819 38.1525 48.4461 39.3248C48.5103 40.497 48.1215 41.6491 47.36 42.5426C46.5985 43.4361 45.5226 44.0027 44.355 44.1251L44.345 44.0551ZM58.68 33.9551C64.785 40.8751 64.95 49.0201 62.59 53.7451C60.39 58.0601 54.59 62.3801 46.79 62.3801C43.1489 62.3058 39.5669 61.4445 36.29 59.8551C37.435 59.0401 39.06 57.7351 39.955 56.9201C42.482 58.0148 45.2014 58.5961 47.955 58.6301C53.005 58.6301 56.83 56.2701 59.11 51.9551C60.575 49.1051 60.66 45.7651 59.275 42.3451C57.5756 38.042 54.5514 34.391 50.64 31.9201C45.5084 28.4608 39.4588 26.6167 33.27 26.6251H31.805C31.4634 27.4142 30.9077 28.092 30.2007 28.5815C29.4938 29.0711 28.6639 29.3529 27.805 29.3951H27.65C26.4621 29.3805 25.3267 28.9034 24.4849 28.0651C23.6431 27.2268 23.1613 26.0933 23.1418 24.9055C23.1222 23.7176 23.5665 22.569 24.3803 21.7035C25.1941 20.8379 26.3132 20.3238 27.5 20.2701H27.665C28.4921 20.2707 29.3029 20.4993 30.0086 20.9306C30.7142 21.3619 31.2874 21.9794 31.665 22.7151H32.97C43.37 22.7151 52.5 26.7051 58.68 33.9551V33.9551ZM17.305 45.4551C17.2194 44.6248 17.4206 43.7902 17.875 43.0901C13.315 35.1901 10.875 25.1751 14.62 14.7501C17.305 6.91512 24.065 1.62012 31.395 1.62012C39.215 1.62012 47.36 8.46512 48.335 21.6551C47.115 21.2501 45.335 20.6551 44.265 20.4351C44 16.1201 40.355 5.37012 31.72 5.53012C28.625 5.61512 24.065 7.08012 21.72 10.0901C18.8193 13.6832 17.1319 18.1031 16.9 22.7151C16.3504 29.039 17.8341 35.3732 21.135 40.7951C21.3173 40.7285 21.5115 40.7013 21.705 40.7151H21.865C23.0744 40.6932 24.243 41.1527 25.1136 41.9924C25.9842 42.8321 26.4856 43.9832 26.5075 45.1926C26.5294 46.402 26.07 47.5706 25.2303 48.4412C24.3906 49.3118 23.2394 49.8132 22.03 49.8351H21.865C20.6852 49.8309 19.5525 49.3716 18.703 48.5528C17.8534 47.734 17.3527 46.619 17.305 45.4401V45.4551Z" fill="#764ABC"/>
</svg>
