<svg width="64" height="64" viewBox="0 0 64 64" fill="none" xmlns="http://www.w3.org/2000/svg">
<g clip-path="url(#clip0_77_1585)">
<path d="M6.6135 28.0371C4.8495 28.0371 3.75 28.9261 3.3125 30.6876C3.9745 29.8011 4.75 29.4746 5.625 29.6991C6.125 29.8241 6.4885 30.1876 6.8865 30.5996C7.537 31.2616 8.287 32.0256 9.926 32.0256C11.6875 32.0256 12.787 31.1366 13.2245 29.3751C12.5625 30.2616 11.787 30.5881 10.912 30.3636C10.412 30.2386 10.051 29.8751 9.6505 29.4631C9 28.8011 8.25 28.0371 6.6135 28.0371V28.0371ZM3.301 32.0001C1.537 32.0001 0.4375 32.8866 0 34.6501C0.662 33.7616 1.4375 33.4376 2.3125 33.6621C2.8125 33.7871 3.176 34.1506 3.574 34.5626C4.2245 35.2246 4.9745 35.9886 6.6135 35.9886C8.375 35.9886 9.4745 35.0996 9.912 33.3381C9.25 34.2246 8.4745 34.5511 7.5995 34.3241C7.0995 34.1991 6.7385 33.8381 6.338 33.4261C5.699 32.7616 4.949 32.0001 3.301 32.0001Z" fill="url(#paint0_linear_77_1585)"/>
<path d="M19.838 31.3749H18.6875V33.6134C18.6875 34.2129 19.074 34.1989 19.8375 34.1619V35.0624C18.2875 35.2499 17.676 34.8239 17.676 33.6134V31.3749H16.824V30.4119H17.676V29.1619L18.676 28.8634V30.4119H19.824V31.3749H19.838ZM24.238 30.4119H25.238V35.0624H24.238V34.3864C23.8865 34.8749 23.338 35.1759 22.613 35.1759C21.3495 35.1759 20.301 34.0994 20.301 32.7244C20.301 31.3379 21.3495 30.2754 22.6135 30.2754C23.338 30.2754 23.8865 30.5739 24.2385 31.0624L24.238 30.4119ZM22.7615 34.2244C23.5995 34.2244 24.2385 33.5994 24.2385 32.7384C24.2385 31.8749 23.5995 31.2499 22.7615 31.2499C21.926 31.2499 21.287 31.8749 21.287 32.7384C21.301 33.5994 21.926 34.2244 22.762 34.2244H22.7615ZM26.912 29.7129C26.5625 29.7129 26.2755 29.4119 26.2755 29.0739C26.2755 28.7244 26.5625 28.4374 26.912 28.4374C27.262 28.4374 27.551 28.7244 27.551 29.0739C27.5625 29.4119 27.2615 29.7129 26.912 29.7129ZM26.412 35.0624V30.4124H27.412V35.0624H26.412ZM28.574 35.0624V28.2754H29.574V35.0624H28.574ZM36.1135 30.4124H37.176L35.713 35.0624H34.7245L33.7615 31.9259L32.787 35.0624H31.801L30.338 30.4124H31.4L32.3 33.6249L33.275 30.4119H34.238L35.1985 33.6249L36.1135 30.4124ZM38.412 29.7124C38.0625 29.7124 37.7755 29.4124 37.7755 29.0739C37.7755 28.7244 38.0625 28.4374 38.412 28.4374C38.762 28.4374 39.051 28.7244 39.051 29.0739C39.0625 29.4119 38.7755 29.7129 38.412 29.7129V29.7124ZM37.912 35.0624V30.4124H38.912V35.0624H37.912ZM42.5255 30.2874C43.5625 30.2874 44.3125 30.9999 44.3125 32.1989V35.0624H43.3125V32.3124C43.3125 31.5994 42.9005 31.2384 42.2755 31.2384C41.6135 31.2384 41.088 31.6249 41.088 32.5739V35.0739H40.088V30.4259H41.088V31.0254C41.4005 30.5254 41.9005 30.2869 42.5255 30.2869V30.2874ZM49.088 28.5509H50.088V35.0624H49.088V34.3864C48.738 34.8749 48.1875 35.1759 47.463 35.1759C46.199 35.1759 45.1505 34.0994 45.1505 32.7244C45.1505 31.3379 46.199 30.2754 47.463 30.2754C48.1875 30.2754 48.738 30.5739 49.088 31.0624V28.5509ZM47.613 34.2244C48.449 34.2244 49.088 33.5994 49.088 32.7384C49.088 31.8749 48.449 31.2499 47.613 31.2499C46.7755 31.2499 46.1365 31.8749 46.1365 32.7384C46.1365 33.5994 46.7755 34.2244 47.6135 34.2244H47.613ZM53.449 35.1874C52.051 35.1874 50.9885 34.1134 50.9885 32.7384C50.9885 31.3494 52.037 30.2869 53.449 30.2869C54.3635 30.2869 55.1505 30.7619 55.5255 31.4884L54.662 31.9884C54.463 31.5509 54 31.2754 53.4375 31.2754C52.6135 31.2754 52 31.9004 52 32.7384C52 33.5739 52.625 34.1989 53.4375 34.1989C54 34.1989 54.449 33.9119 54.676 33.4884L55.537 33.9744C55.162 34.7129 54.3635 35.1874 53.449 35.1874ZM57.213 31.6874C57.213 32.5374 59.713 32.0254 59.713 33.7499C59.713 34.6759 58.9005 35.1874 57.9005 35.1874C56.9745 35.1874 56.3005 34.7614 56 34.0994L56.8635 33.5994C57.0115 34.0254 57.3865 34.2754 57.9005 34.2754C58.3495 34.2754 58.6875 34.1249 58.6875 33.7499C58.6875 32.9259 56.1875 33.3864 56.1875 31.7249C56.1875 30.8499 56.9375 30.3009 57.8865 30.3009C58.6505 30.3009 59.287 30.6504 59.6135 31.2614L58.7615 31.7384C58.5995 31.3749 58.2755 31.2129 57.8865 31.2129C57.5255 31.1989 57.213 31.3629 57.213 31.6874ZM61.5 31.6874C61.5 32.5374 64 32.0254 64 33.7499C64 34.6759 63.1875 35.1874 62.1875 35.1874C61.2615 35.1874 60.5875 34.7614 60.2875 34.0994L61.1505 33.5994C61.3005 34.0254 61.6755 34.2754 62.1875 34.2754C62.6365 34.2754 62.9745 34.1249 62.9745 33.7499C62.9745 32.9259 60.4745 33.3864 60.4745 31.7249C60.4745 30.8499 61.2245 30.3009 62.176 30.3009C62.9375 30.3009 63.574 30.6504 63.9005 31.2614L63.0505 31.7384C62.8865 31.3749 62.5625 31.2129 62.1755 31.2129C61.8125 31.1989 61.5 31.3629 61.5 31.6874Z" fill="#2D3748"/>
</g>
<defs>
<linearGradient id="paint0_linear_77_1585" x1="-0.353838" y1="30.5579" x2="11.0723" y2="37.146" gradientUnits="userSpaceOnUse">
<stop stop-color="#2298BD"/>
<stop offset="1" stop-color="#0ED7B5"/>
</linearGradient>
<clipPath id="clip0_77_1585">
<rect width="64" height="64" fill="white"/>
</clipPath>
</defs>
</svg>
