<svg width="64" height="64" viewBox="0 0 64 64" fill="none" xmlns="http://www.w3.org/2000/svg">
<path d="M49.62 40.355C47.45 40.38 45.55 41.5 43.945 42.5C40.945 44.355 39.445 44.235 39.445 44.235L39.395 44.15C39.19 43.815 40.355 40.81 39.05 37.23C37.64 33.315 35.4 32.37 35.58 32.07C36.345 30.775 38.26 28.72 39.025 24.89C39.48 22.57 39.36 18.75 38.33 16.75C38.14 16.38 36.44 17.37 36.44 17.37C36.44 17.37 34.85 13.825 34.405 13.54C32.97 12.62 31.405 17.345 31.405 17.345C30.3213 17.2388 29.2278 17.3869 28.2114 17.7775C27.195 18.168 26.2837 18.7904 25.55 19.595C25.0061 20.1189 24.3467 20.5076 23.625 20.73C23.42 20.8 23.17 20.79 22.55 22.465C21.6 25 24.17 27.87 24.17 27.87C24.17 27.87 21.105 30.035 19.97 32.73C19.2119 34.5776 18.9117 36.5812 19.095 38.57C19.095 38.57 16.915 40.46 16.775 42.41C16.6451 43.7759 16.9552 45.1477 17.66 46.325C17.715 46.4425 17.7931 46.5477 17.8895 46.6346C17.9859 46.7214 18.0987 46.788 18.2214 46.8304C18.344 46.8728 18.4738 46.8902 18.6033 46.8815C18.7328 46.8729 18.8592 46.8383 18.975 46.7799C18.975 46.7799 17.525 48.47 18.88 49.185C20.115 49.83 22.195 50.185 23.295 49.09C24.095 48.29 24.255 46.505 24.55 45.775C24.62 45.605 24.86 46.06 25.09 46.275C25.3022 46.4605 25.5297 46.6277 25.77 46.775C25.77 46.775 23.82 47.6149 24.62 49.5299C24.885 50.1649 25.83 50.57 27.375 50.56C27.95 50.56 34.255 50.1999 35.935 49.7949C36.4429 49.7143 36.9055 49.4555 37.24 49.0649C39.968 48.2535 42.5733 47.0761 44.985 45.5649C47.355 44.0199 48.325 43.6 50.24 43.145C51.82 42.77 51.715 40.32 49.62 40.355V40.355Z" fill="#2C8EBB"/>
<path d="M32 1C25.8688 1 19.8753 2.81812 14.7773 6.22444C9.67941 9.63077 5.70606 14.4723 3.35975 20.1368C1.01343 25.8013 0.399528 32.0344 1.59567 38.0478C2.79181 44.0612 5.74428 49.5849 10.0797 53.9203C14.4151 58.2557 19.9388 61.2082 25.9522 62.4043C31.9656 63.6005 38.1987 62.9866 43.8632 60.6403C49.5277 58.2939 54.3693 54.3206 57.7756 49.2227C61.1819 44.1248 63 38.1312 63 32C63 23.7783 59.734 15.8933 53.9203 10.0797C48.1067 4.26606 40.2217 1 32 1V1ZM50.65 44.915C48.975 45.32 48.195 45.635 45.945 47.095C43.516 48.6198 40.9013 49.8263 38.165 50.685C37.6363 51.1188 37.0128 51.422 36.345 51.57C34.44 52.035 27.905 52.385 27.39 52.385H27.27C25.27 52.385 24.135 51.765 23.525 51.115C21.825 51.965 19.625 51.615 18.025 50.77C17.6419 50.5822 17.3073 50.3085 17.0471 49.9703C16.787 49.6321 16.6083 49.2385 16.525 48.82C16.4656 48.4792 16.4656 48.1308 16.525 47.79C16.3777 47.6363 16.2454 47.4689 16.13 47.29C15.2217 45.7787 14.8254 44.0146 15 42.26C15.145 40.395 16.435 38.73 17.275 37.845C17.2052 35.846 17.5561 33.8547 18.305 32C19.1094 30.275 20.2719 28.741 21.715 27.5C20.89 26.11 20.05 23.97 20.865 21.79C21.45 20.235 21.93 19.37 22.985 19C23.4457 18.8671 23.8733 18.6388 24.24 18.33C25.7787 16.6585 27.9028 15.6449 30.17 15.5C30.265 15.26 30.375 15 30.495 14.77C31.295 13.07 32.145 12.115 33.14 11.77C33.5005 11.6352 33.8877 11.5876 34.27 11.6311C34.6524 11.6745 35.019 11.8078 35.34 12.02C35.665 12.235 36.08 12.52 37.29 15.02C37.7483 14.8558 38.2463 14.8384 38.715 14.97C38.9707 15.0397 39.2091 15.1619 39.4148 15.3289C39.6206 15.496 39.7893 15.7041 39.91 15.94C41.145 18.31 41.31 22.535 40.77 25.25C40.2908 27.6538 39.2944 29.9247 37.85 31.905C39.142 33.2491 40.1263 34.8579 40.735 36.62C41.3299 38.287 41.57 40.0598 41.44 41.825C41.9776 41.5677 42.4986 41.2771 43 40.955C44.53 40.01 46.84 38.585 49.595 38.55C50.4308 38.4941 51.2566 38.757 51.9061 39.2859C52.5556 39.8148 52.9805 40.5703 53.095 41.4C53.1995 42.1853 53.0066 42.9813 52.5542 43.6317C52.1018 44.282 51.4226 44.7398 50.65 44.915V44.915Z" fill="#2C8EBB"/>
</svg>
