<svg xmlns="http://www.w3.org/2000/svg" width="500" height="500" viewBox="0 0 500 500" version="1.1"><path d="M 209.186 156.750 C 208.605 158.262, 206.708 164.225, 204.972 170 C 200.619 184.478, 186.229 230.613, 184.542 235.500 C 183.782 237.700, 181.515 244.900, 179.503 251.500 C 177.491 258.100, 175.461 264.625, 174.992 266 C 174.522 267.375, 172.501 273.900, 170.501 280.500 C 168.501 287.100, 164.702 299.250, 162.059 307.500 C 156.486 324.899, 151.522 340.527, 150.546 343.750 L 149.865 346 169.811 346 L 189.757 346 190.812 343.250 C 191.392 341.738, 193.384 335.550, 195.239 329.500 L 198.612 318.500 236.909 318.238 C 266.838 318.033, 275.106 317.706, 274.751 316.738 C 274.501 316.057, 272.842 310.550, 271.063 304.500 C 269.285 298.450, 267.269 291.700, 266.583 289.500 L 265.335 285.500 237.417 285 C 219.663 284.682, 209.551 284.136, 209.640 283.500 C 209.795 282.397, 218.366 254.854, 220.531 248.500 C 221.281 246.300, 223.315 239.775, 225.051 234 C 229.366 219.648, 232.265 210.345, 238.448 191 C 241.349 181.925, 245.022 170.338, 246.611 165.252 C 248.200 160.166, 249.725 156.004, 250 156.004 C 250.275 156.004, 251.790 160.166, 253.366 165.252 C 254.942 170.338, 257.271 177.650, 258.541 181.500 C 259.812 185.350, 262.712 194.575, 264.987 202 C 267.262 209.425, 269.735 217.300, 270.483 219.500 C 271.231 221.700, 273.252 228.225, 274.974 234 C 276.696 239.775, 278.716 246.300, 279.462 248.500 C 281.381 254.162, 291.150 285.250, 295.486 299.500 C 297.494 306.100, 299.522 312.625, 299.992 314 C 300.461 315.375, 302.485 321.900, 304.489 328.500 C 306.493 335.100, 308.607 341.738, 309.188 343.250 L 310.243 346 330.121 346 C 341.055 346, 350 345.816, 350 345.590 C 350 345.365, 348.712 341.202, 347.139 336.340 C 341.691 319.509, 333.150 292.448, 329.514 280.500 C 327.506 273.900, 325.478 267.375, 325.008 266 C 324.539 264.625, 322.509 258.100, 320.497 251.500 C 318.485 244.900, 316.218 237.700, 315.458 235.500 C 313.771 230.613, 299.381 184.478, 295.028 170 C 293.292 164.225, 291.395 158.262, 290.814 156.750 L 289.757 154 250 154 L 210.243 154 209.186 156.750" stroke="none" fill="#acacac" fill-rule="evenodd"/><path d="M 0 250.002 L 0 500.004 250.250 499.752 L 500.500 499.500 500.752 249.750 L 501.004 0 250.502 0 L 0 0 0 250.002 M 0.492 250.500 C 0.492 388, 0.608 444.101, 0.750 375.170 C 0.892 306.238, 0.892 193.738, 0.750 125.170 C 0.608 56.601, 0.492 113, 0.492 250.500 M 209.186 156.750 C 208.605 158.262, 206.708 164.225, 204.972 170 C 200.619 184.478, 186.229 230.613, 184.542 235.500 C 183.782 237.700, 181.515 244.900, 179.503 251.500 C 177.491 258.100, 175.461 264.625, 174.992 266 C 174.522 267.375, 172.501 273.900, 170.501 280.500 C 168.501 287.100, 164.702 299.250, 162.059 307.500 C 156.486 324.899, 151.522 340.527, 150.546 343.750 L 149.865 346 169.811 346 L 189.757 346 190.812 343.250 C 191.392 341.738, 193.384 335.550, 195.239 329.500 L 198.612 318.500 236.909 318.238 C 266.838 318.033, 275.106 317.706, 274.751 316.738 C 274.501 316.057, 272.842 310.550, 271.063 304.500 C 269.285 298.450, 267.269 291.700, 266.583 289.500 L 265.335 285.500 237.417 285 C 219.663 284.682, 209.551 284.136, 209.640 283.500 C 209.795 282.397, 218.366 254.854, 220.531 248.500 C 221.281 246.300, 223.315 239.775, 225.051 234 C 229.366 219.648, 232.265 210.345, 238.448 191 C 241.349 181.925, 245.022 170.338, 246.611 165.252 C 248.200 160.166, 249.725 156.004, 250 156.004 C 250.275 156.004, 251.790 160.166, 253.366 165.252 C 254.942 170.338, 257.271 177.650, 258.541 181.500 C 259.812 185.350, 262.712 194.575, 264.987 202 C 267.262 209.425, 269.735 217.300, 270.483 219.500 C 271.231 221.700, 273.252 228.225, 274.974 234 C 276.696 239.775, 278.716 246.300, 279.462 248.500 C 281.381 254.162, 291.150 285.250, 295.486 299.500 C 297.494 306.100, 299.522 312.625, 299.992 314 C 300.461 315.375, 302.485 321.900, 304.489 328.500 C 306.493 335.100, 308.607 341.738, 309.188 343.250 L 310.243 346 330.121 346 C 341.055 346, 350 345.816, 350 345.590 C 350 345.365, 348.712 341.202, 347.139 336.340 C 341.691 319.509, 333.150 292.448, 329.514 280.500 C 327.506 273.900, 325.478 267.375, 325.008 266 C 324.539 264.625, 322.509 258.100, 320.497 251.500 C 318.485 244.900, 316.218 237.700, 315.458 235.500 C 313.771 230.613, 299.381 184.478, 295.028 170 C 293.292 164.225, 291.395 158.262, 290.814 156.750 L 289.757 154 250 154 L 210.243 154 209.186 156.750" stroke="none" fill="#e3e3e3" fill-rule="evenodd"/></svg>