<?xml version="1.0" standalone="no"?>
<!DOCTYPE svg PUBLIC "-//W3C//DTD SVG 20010904//EN"
 "http://www.w3.org/TR/2001/REC-SVG-20010904/DTD/svg10.dtd">
<svg version="1.0" xmlns="http://www.w3.org/2000/svg"
 width="512.000000pt" height="512.000000pt" viewBox="0 0 512.000000 512.000000"
 preserveAspectRatio="xMidYMid meet">

<g transform="translate(0.000000,512.000000) scale(0.100000,-0.100000)"
fill="#000000" stroke="none">
<path d="M1265 3430 c-333 -37 -625 -261 -745 -572 -42 -107 -60 -212 -60
-340 0 -243 92 -463 264 -634 150 -149 330 -236 545 -264 269 -35 562 68 757
266 l62 64 52 -124 c29 -70 64 -135 79 -150 58 -55 144 -70 216 -37 72 33 89
62 180 306 48 127 90 233 94 238 4 4 47 -99 96 -229 51 -136 99 -249 114 -267
53 -63 150 -83 226 -48 50 23 78 54 104 111 11 25 133 351 272 725 162 439
253 698 256 730 7 71 -35 149 -96 182 -78 41 -190 25 -243 -34 -26 -28 -44
-73 -213 -533 -86 -233 -158 -426 -160 -428 -2 -2 -40 90 -85 205 -45 114 -92
224 -105 244 -25 39 -111 89 -153 89 -50 0 -108 -25 -147 -65 -33 -33 -52 -71
-109 -215 -38 -96 -78 -195 -89 -220 l-19 -45 -112 227 c-62 125 -121 237
-132 249 -70 79 -234 75 -291 -7 -59 -85 -57 -144 9 -269 49 -93 53 -105 53
-170 0 -62 -5 -78 -39 -143 -108 -203 -346 -315 -571 -269 -187 39 -342 167
-405 334 -74 198 -26 417 125 568 104 104 231 155 387 155 104 0 162 29 199
102 46 91 0 222 -91 256 -39 15 -148 21 -225 12z"/>
<path d="M3965 2916 c-38 -17 -90 -72 -104 -109 -7 -19 -11 -201 -11 -531 0
-501 0 -502 23 -546 12 -24 39 -57 60 -74 31 -25 49 -31 102 -34 56 -4 70 -1
109 22 29 17 56 44 73 74 l28 47 -4 510 c-3 466 -5 513 -21 545 -22 43 -66 85
-103 99 -39 15 -116 13 -152 -3z"/>
<path d="M4525 1991 c-129 -59 -154 -233 -46 -324 31 -26 87 -47 125 -47 42 0
103 27 137 61 149 149 -25 398 -216 310z"/>
</g>
</svg>
