<svg width="694" height="157" viewBox="0 0 694 157" fill="none" xmlns="http://www.w3.org/2000/svg">
<path d="M0 133V0H18.9082V133H0ZM31.977 133V120.27C52.7389 120.27 67.0128 118.813 74.7985 115.9C84.6233 111.973 89.6284 105.197 89.8138 95.57V37.43C89.8138 25.27 81.6573 17.7333 65.3444 14.82C57.9294 13.4267 46.807 12.73 31.977 12.73V0C66.4566 0 89.0723 5.06667 99.824 15.2C105.941 21.0267 109 28.4367 109 37.43V95.57C109 114.697 96.2092 126.413 70.6276 130.72C61.1735 132.24 48.29 133 31.977 133Z" fill="#08A8B3"/>
<path d="M35 24H55V109H35V24Z" fill="#08A8B3"/>
<path d="M122.031 18.1797C122.031 15.0156 123.555 12.8477 126.602 11.6758C127.539 11.3242 128.418 11.1484 129.238 11.1484C132.402 11.1484 134.57 12.6719 135.742 15.7188C135.977 16.5391 136.094 17.3594 136.094 18.1797C136.094 21.4609 134.57 23.6289 131.523 24.6836C130.703 24.918 129.941 25.0352 129.238 25.0352C125.957 25.0352 123.73 23.5703 122.559 20.6406C122.207 19.8203 122.031 19 122.031 18.1797ZM123.438 124V32.0664H135.039V124H123.438Z" fill="#08A8B3"/>
<path d="M150.684 98.5117V55.9727C150.684 50.582 153.145 45.25 158.066 39.9766C163.926 33.7656 171.309 30.6602 180.215 30.6602V41.9102C172.832 41.9102 167.5 45.0156 164.219 51.2266C162.93 53.6875 162.285 56.0312 162.285 58.2578V96.2266C162.285 100.68 164.395 104.781 168.613 108.531C172.129 111.461 176.055 112.926 180.391 112.926V124.176C169.492 124.176 161.055 119.781 155.078 110.992C152.148 106.539 150.684 102.379 150.684 98.5117ZM187.773 124.176V112.926C194.57 112.926 199.668 109.879 203.066 103.785C204.355 101.207 205 98.8047 205 96.5781V58.2578C205 53.3359 202.891 49.1172 198.672 45.6016C195.508 43.1406 191.875 41.9102 187.773 41.9102V30.6602C198.438 30.6602 206.582 34.9961 212.207 43.668C215.02 48.0039 216.426 52.1055 216.426 55.9727V98.5117C216.426 104.02 214.082 109.41 209.395 114.684C203.652 120.895 196.445 124.059 187.773 124.176Z" fill="#08A8B3"/>
<path d="M227.852 156.344L230.84 145.445H263.359C270.977 145.094 276.602 142.164 280.234 136.656C281.523 134.664 282.168 132.73 282.168 130.855V116.617C277.012 121.305 271.387 123.648 265.293 123.648V113.277C270.566 113.277 275.078 110.992 278.828 106.422C281.055 103.727 282.168 101.031 282.168 98.3359V55.9727C282.168 50.4648 279.18 46.2461 273.203 43.3164C270.391 41.9102 267.754 41.207 265.293 41.207V30.3086C271.152 30.3086 276.484 32.2422 281.289 36.1094C281.641 36.4609 281.934 36.7539 282.168 36.9883V30.3086H293.418V130.855C293.418 135.777 291.25 140.875 286.914 146.148C281.172 152.828 274.141 156.227 265.82 156.344H227.852ZM229.434 98.5117V55.2695C229.551 49.8789 231.895 44.6055 236.465 39.4492C242.207 33.4727 249.238 30.4258 257.559 30.3086V41.207C251.465 41.207 246.66 43.9609 243.145 49.4688C241.621 51.6953 240.859 53.8047 240.859 55.7969V98.3359C240.859 102.203 242.852 105.719 246.836 108.883C250.117 111.461 253.691 112.75 257.559 112.75V123.648C246.895 123.648 238.809 119.195 233.301 110.289C230.723 106.07 229.434 102.145 229.434 98.5117Z" fill="#08A8B3"/>
<path d="M306.953 98.5117V55.9727C306.953 50.582 309.414 45.25 314.336 39.9766C320.195 33.7656 327.578 30.6602 336.484 30.6602V41.9102C329.102 41.9102 323.77 45.0156 320.488 51.2266C319.199 53.6875 318.555 56.0312 318.555 58.2578V96.2266C318.555 100.68 320.664 104.781 324.883 108.531C328.398 111.461 332.324 112.926 336.66 112.926V124.176C325.762 124.176 317.324 119.781 311.348 110.992C308.418 106.539 306.953 102.379 306.953 98.5117ZM344.043 124.176V112.926C350.84 112.926 355.938 109.879 359.336 103.785C360.625 101.207 361.27 98.8047 361.27 96.5781V58.2578C361.27 53.3359 359.16 49.1172 354.941 45.6016C351.777 43.1406 348.145 41.9102 344.043 41.9102V30.6602C354.707 30.6602 362.852 34.9961 368.477 43.668C371.289 48.0039 372.695 52.1055 372.695 55.9727V98.5117C372.695 104.02 370.352 109.41 365.664 114.684C359.922 120.895 352.715 124.059 344.043 124.176Z" fill="#08A8B3"/>
<path d="M428.418 124V0.953125H440.371V124H428.418Z" fill="#08A8B3"/>
<path d="M453.027 124L453.203 112.926L493.633 42.0859H453.027V30.8359H506.465V41.3828L466.035 112.75H506.465V124H453.027Z" fill="#08A8B3"/>
<path d="M518.594 98.5117V55.7969C518.711 50.4062 521.289 45.1328 526.328 39.9766C532.188 33.8828 539.395 30.7773 547.949 30.6602V41.7344C541.738 41.7344 536.758 44.4883 533.008 49.9961C531.25 52.5742 530.371 54.9766 530.371 57.2031V70.2109H574.492V57.2031C574.492 51.5781 571.621 47.1836 565.879 44.0195C562.832 42.2617 559.668 41.3828 556.387 41.3828V30.6602C564.355 30.6602 571.504 33.5312 577.832 39.2734C582.988 44.1953 585.625 49.6445 585.742 55.6211V81.4609H530.371V98.5117C530.371 101.91 532.422 105.309 536.523 108.707C540.156 111.637 544.023 113.102 548.125 113.102V124C537.695 124 529.434 119.723 523.34 111.168C520.176 106.598 518.594 102.379 518.594 98.5117ZM556.387 124V112.75C563.77 112.75 569.395 109.703 573.262 103.609C574.434 101.852 575.195 100.152 575.547 98.5117L585.918 102.379C583.574 110.699 578.535 116.793 570.801 120.66C566.348 122.887 561.543 124 556.387 124Z" fill="#08A8B3"/>
<path d="M600.156 124V0.425781H612.285V124H600.156Z" fill="#08A8B3"/>
<path d="M626.523 98.5117V55.7969C626.641 50.4062 629.219 45.1328 634.258 39.9766C640.117 33.8828 647.324 30.7773 655.879 30.6602V41.7344C649.668 41.7344 644.688 44.4883 640.938 49.9961C639.18 52.5742 638.301 54.9766 638.301 57.2031V70.2109H682.422V57.2031C682.422 51.5781 679.551 47.1836 673.809 44.0195C670.762 42.2617 667.598 41.3828 664.316 41.3828V30.6602C672.285 30.6602 679.434 33.5312 685.762 39.2734C690.918 44.1953 693.555 49.6445 693.672 55.6211V81.4609H638.301V98.5117C638.301 101.91 640.352 105.309 644.453 108.707C648.086 111.637 651.953 113.102 656.055 113.102V124C645.625 124 637.363 119.723 631.27 111.168C628.105 106.598 626.523 102.379 626.523 98.5117ZM664.316 124V112.75C671.699 112.75 677.324 109.703 681.191 103.609C682.363 101.852 683.125 100.152 683.477 98.5117L693.848 102.379C691.504 110.699 686.465 116.793 678.73 120.66C674.277 122.887 669.473 124 664.316 124Z" fill="#08A8B3"/>
</svg>
