<svg xmlns="http://www.w3.org/2000/svg" width="1200" height="1200" viewBox="0 0 1200 1200" version="1.1"><path d="M 451.500 57.651 C 425.087 61.865, 404.371 79.045, 396.306 103.422 C 393.995 110.407, 393.629 113.192, 393.598 124 C 393.566 135.439, 393.822 137.231, 396.617 145.118 C 402.601 162.005, 414.469 175.702, 429.500 183.069 C 440.391 188.407, 448.513 190.328, 460 190.283 C 478.645 190.210, 492.638 184.367, 506.110 171.026 C 513.084 164.120, 515.505 160.885, 518.855 154 C 524.933 141.507, 526.325 134.852, 525.756 121.026 C 525.093 104.934, 521.155 94.351, 511.235 82 C 502.512 71.139, 489.753 62.876, 476.500 59.503 C 470.093 57.872, 456.447 56.861, 451.500 57.651" stroke="none" fill="#c90406" fill-rule="evenodd"/><path d="M 384.688 701.094 C 372.057 702.941, 361.488 710.295, 356.798 720.500 C 354.900 724.629, 354.506 727.155, 354.537 735 C 354.569 743.245, 354.918 745.161, 357.178 749.502 C 361.430 757.668, 368.903 763.804, 383.835 771.387 C 403.758 781.505, 408.266 786.641, 404.704 795.166 C 402.662 800.054, 397.726 802.204, 388.643 802.163 C 379.865 802.123, 374.407 800.934, 362.475 796.465 C 357.386 794.559, 352.948 793, 352.612 793 C 352.275 793, 352 798.182, 352 804.515 L 352 816.029 355.208 817.980 C 364.029 823.345, 389.149 825.703, 402.913 822.459 C 415.827 819.415, 426.181 810.992, 429.577 800.769 C 433.243 789.731, 431.042 775.914, 424.377 768.127 C 419.643 762.597, 414.156 758.942, 399.087 751.279 C 383.185 743.194, 380 740.302, 380 733.950 C 380 722.048, 392.391 719.136, 413.389 726.105 C 418.278 727.728, 422.436 728.898, 422.628 728.705 C 423.624 727.710, 430.783 709.459, 430.413 708.860 C 429.575 707.503, 411.421 702.022, 404.500 701.037 C 396.471 699.893, 392.827 699.904, 384.688 701.094 M 969.500 700.646 C 967.850 700.912, 963.800 701.813, 960.500 702.649 C 942.328 707.251, 929.284 721.313, 924.369 741.600 C 921.853 751.989, 922.102 774.081, 924.851 784.314 C 931.956 810.756, 950.374 824.026, 979.910 823.985 C 1007.975 823.946, 1025.402 812.381, 1033.644 788.328 C 1035.963 781.561, 1036.384 778.468, 1036.754 765.500 C 1037.255 747.910, 1035.856 739.422, 1030.661 728.535 C 1024.491 715.607, 1013.948 706.700, 1000.213 702.810 C 993.576 700.930, 975.600 699.664, 969.500 700.646 M 167.242 762.250 L 167.500 822.500 180.500 822.500 L 193.500 822.500 193.758 762.250 L 194.016 702 180.500 702 L 166.984 702 167.242 762.250 M 223 762.532 L 223 823.063 234.750 822.782 L 246.500 822.500 246.493 788 C 246.489 769.025, 246.149 748.560, 245.738 742.523 L 244.991 731.546 271.246 777.255 L 297.500 822.965 313.750 822.983 L 330 823 330 762.500 L 330 702 318.412 702 L 306.823 702 307.162 746.385 L 307.500 790.770 300.396 778.635 C 296.489 771.961, 284.867 751.987, 274.568 734.250 L 255.844 702 239.422 702 L 223 702 223 762.532 M 441 713 L 441 724 456.991 724 L 472.981 724 473.241 773.250 L 473.500 822.500 486.500 822.500 L 499.500 822.500 499.759 773.250 L 500.019 724 516.009 724 L 532 724 532 713 L 532 702 486.500 702 L 441 702 441 713 M 550 762.500 L 550 823 563 823 L 576 823 576 762.500 L 576 702 563 702 L 550 702 550 762.500 M 594 713 L 594 724 610.500 724 L 627 724 627 773.500 L 627 823 640 823 L 653 823 653 773.500 L 653 724 669 724 L 685 724 685 713 L 685 702 639.500 702 L 594 702 594 713 M 702.017 742.750 C 702.036 787.002, 702.513 792.158, 707.493 801.987 C 712.615 812.093, 724.019 820.230, 736.799 822.895 C 744.262 824.451, 760.348 824.242, 767.769 822.492 C 785.968 818.202, 798.074 805.604, 800.933 787.981 C 801.541 784.234, 801.988 764.730, 801.992 741.750 L 802 702 788.500 702 L 775 702 775 743.322 C 775 789.476, 774.769 791.361, 768.444 796.915 C 764.401 800.464, 759.461 801.989, 752 801.989 C 744.033 801.989, 739.042 800.277, 734.882 796.118 C 728.868 790.104, 728.710 788.841, 728.256 743.250 L 727.845 702 714.922 702 L 702 702 702.017 742.750 M 818.429 703.325 C 818.149 704.054, 818.051 708.891, 818.210 714.075 L 818.500 723.500 834.750 723.775 L 851 724.050 851 773.525 L 851 823 864 823 L 877 823 877 773.500 L 877 724 893.500 724 L 910 724 910 713 L 910 702 864.469 702 C 827.591 702, 818.841 702.252, 818.429 703.325 M 970.821 723.395 C 956.235 727.322, 949.189 741.878, 950.250 765.890 C 951.035 783.683, 955.984 794.354, 965.660 799.117 C 972.430 802.450, 987.475 802.562, 993.500 799.325 C 998.861 796.444, 1003.465 791.480, 1005.910 785.945 C 1010.605 775.313, 1011.115 754.809, 1007.010 741.684 C 1002.144 726.123, 987.734 718.841, 970.821 723.395 M 251 906.500 L 251 967 264 967 L 277 967 277 943 L 277 919 297.500 919 L 318 919 318 908.500 L 318 898 297.500 898 L 277 898 277 883.020 L 277 868.039 298.750 867.770 L 320.500 867.500 320.784 856.750 L 321.068 846 286.034 846 L 251 846 251 906.500 M 343.242 906.250 L 343.500 966.500 378.250 966.763 L 413 967.026 413 956.013 L 413 945 391.500 945 L 370 945 370 930 L 370 915 390 915 L 410 915 410 904 L 410 893 390 893 L 370 893 370 880.500 L 370 868 391.500 868 L 413 868 413 857 L 413 846 377.992 846 L 342.984 846 343.242 906.250 M 438 906.514 L 438 967.243 462.750 966.743 C 489.819 966.197, 496.859 965.056, 508.660 959.302 C 515.598 955.919, 524.667 947.752, 529.022 940.966 C 539.456 924.706, 540.844 895.086, 532.052 876.297 C 527.828 867.271, 518.557 857.867, 509.548 853.470 C 497.082 847.386, 493.254 846.776, 464.250 846.256 L 438 845.785 438 906.514 M 562 906.500 L 562 967 597 967 L 632 967 632 956 L 632 945 610 945 L 588 945 588 930 L 588 915 608.500 915 L 629 915 629 904 L 629 893 608.500 893 L 588 893 588 880.500 L 588 868 610 868 L 632 868 632 857 L 632 846 597 846 L 562 846 562 906.500 M 656 906.420 L 656 967.058 669.250 966.779 L 682.500 966.500 682.769 943.750 L 683.038 921 689.354 921 L 695.670 921 710.010 944.015 L 724.349 967.031 752.342 966.765 L 780.334 966.500 782.112 961 C 783.090 957.975, 785.070 951.554, 786.512 946.731 L 789.133 937.961 810.734 938.231 L 832.335 938.500 833.607 942.500 C 834.307 944.700, 836.276 951.112, 837.982 956.750 L 841.086 967 855.150 967 C 865.961 967, 869.116 966.711, 868.789 965.750 C 868.556 965.063, 858.964 937.837, 847.475 905.250 L 826.586 846 810.543 846.017 L 794.500 846.033 773.603 905.570 C 762.110 938.315, 752.346 964.745, 751.905 964.303 C 751.464 963.861, 743.683 952.524, 734.614 939.110 L 718.124 914.720 724.014 910.913 C 735.292 903.623, 740.677 892.706, 739.740 879.031 C 738.856 866.140, 733.379 857.295, 723.003 852.001 C 714.220 847.521, 708.705 846.753, 681.750 846.256 L 656 845.782 656 906.420 M 883.459 847.250 C 883.196 847.938, 883.098 875.050, 883.241 907.500 L 883.500 966.500 920.750 966.762 L 958 967.024 958 956.012 L 958 945 934 945 L 910 945 910 895.500 L 910 846 896.969 846 C 887.465 846, 883.808 846.338, 883.459 847.250 M 803.270 891.270 C 799.304 904.538, 796.209 915.542, 796.391 915.724 C 796.573 915.906, 803.262 915.930, 811.256 915.778 L 825.790 915.500 818.360 891.548 C 814.274 878.375, 810.829 867.496, 810.705 867.372 C 810.581 867.248, 807.235 878.002, 803.270 891.270 M 464 906.628 L 464 945.257 474.750 944.764 C 488.056 944.155, 494.807 941.815, 500.735 935.760 C 506.076 930.303, 508.741 924.178, 510.170 914.074 C 512.488 897.681, 507.593 880.551, 498.726 874.030 C 492.672 869.577, 486.287 868, 474.318 868 L 464 868 464 906.628 M 683 883.500 L 683 899.233 692.775 898.840 C 707.303 898.256, 712.995 894.210, 713.220 884.304 C 713.483 872.769, 708.545 868.883, 692.750 868.193 L 683 867.767 683 883.500 M 233 1063.500 L 233 1112 238.500 1112 L 244 1112 244 1063.500 L 244 1015 238.500 1015 L 233 1015 233 1063.500 M 823 1033.455 L 823 1051.909 820.481 1049.390 C 811.087 1039.996, 790.715 1040.727, 781.894 1050.773 C 769.622 1064.751, 770.815 1095.982, 784.053 1107.314 C 791.718 1113.874, 804.907 1115.237, 814.642 1110.474 C 817.648 1109.004, 820.642 1106.945, 821.294 1105.900 C 822.914 1103.307, 824 1103.515, 824 1106.418 C 824 1111.050, 824.954 1112, 829.607 1112 L 834 1112 834 1063.500 L 834 1015 828.500 1015 L 823 1015 823 1033.455 M 358.571 1020.571 C 356.337 1022.806, 356.574 1028.574, 359 1031 C 361.826 1033.826, 365.437 1033.531, 368.006 1030.266 C 370.249 1027.413, 370.192 1023.141, 367.872 1020.345 C 366.345 1018.506, 360.495 1018.648, 358.571 1020.571 M 99.173 1021.423 C 86.067 1025.699, 79.830 1036.786, 83.029 1050.121 C 84.037 1054.323, 85.369 1056.496, 89.402 1060.516 C 93.620 1064.721, 96.399 1066.351, 105.500 1069.961 C 123.497 1077.100, 126.957 1080.194, 126.985 1089.173 C 127.003 1094.677, 123.687 1099.397, 118.190 1101.694 C 113.082 1103.828, 98.072 1103.478, 89.263 1101.020 C 85.282 1099.909, 81.795 1099, 81.513 1099 C 81.231 1099, 81 1101.273, 81 1104.051 C 81 1108.908, 81.139 1109.160, 84.610 1110.610 C 89.423 1112.621, 105.113 1113.870, 113.256 1112.889 C 131.212 1110.728, 141.540 1097.926, 138.019 1082.194 C 135.985 1073.105, 129.215 1067.379, 113.517 1061.470 C 98.010 1055.633, 94 1051.971, 94 1043.646 C 94 1037.319, 95.809 1034.445, 101.383 1031.914 C 106.777 1029.464, 114.699 1029.493, 124.500 1032 C 128.801 1033.100, 132.496 1034, 132.711 1034 C 133.314 1034, 136 1027.235, 136 1025.715 C 136 1021.630, 108.399 1018.413, 99.173 1021.423 M 332.589 1043.146 C 327.104 1044.394, 322.299 1047.604, 318.904 1052.291 L 316 1056.300 316 1053.275 C 316 1051.611, 315.719 1048.844, 315.375 1047.125 C 314.789 1044.196, 314.475 1044, 310.375 1044 L 306 1044 306 1078 L 306 1112 311.431 1112 L 316.863 1112 317.181 1089.750 C 317.500 1067.529, 317.504 1067.494, 320.254 1062.815 C 324.391 1055.778, 327.983 1053.675, 336.954 1053.037 L 344.500 1052.500 345.123 1048 C 345.465 1045.525, 345.690 1043.451, 345.623 1043.391 C 344.780 1042.641, 335.569 1042.468, 332.589 1043.146 M 411.217 1043.104 C 403.961 1044.325, 398.975 1047.085, 394.176 1052.538 C 388.299 1059.214, 386.487 1065.272, 386.561 1078 C 386.637 1091.220, 389.038 1098.133, 395.952 1105.047 C 401.539 1110.635, 408.113 1113.125, 417.273 1113.125 C 428.491 1113.125, 434.502 1110.645, 440.900 1103.377 C 452.224 1090.511, 451.604 1063.598, 439.696 1051.162 C 434.596 1045.836, 430.171 1043.993, 419 1042.540 C 417.625 1042.361, 414.123 1042.615, 411.217 1043.104 M 523.859 1042.987 C 513.557 1044.798, 507.069 1050.374, 504.941 1059.247 C 502.775 1068.275, 505.854 1078.624, 512.011 1083.008 L 515.067 1085.184 511.533 1089.095 C 507.059 1094.047, 506.691 1099.290, 510.498 1103.815 L 512.996 1106.784 510.575 1107.392 C 507.036 1108.280, 501.932 1112.919, 500.364 1116.671 C 496.345 1126.290, 501.303 1136.726, 511.621 1140.366 C 521.620 1143.894, 539.004 1143.205, 549.053 1138.882 C 565.054 1131.998, 567.702 1110.987, 553.500 1103.591 C 550.192 1101.868, 547.055 1101.416, 535.372 1100.977 C 520.040 1100.401, 518 1099.706, 518 1095.052 C 518 1090.658, 522.115 1087.580, 527.608 1087.865 C 538.941 1088.451, 549.070 1083.704, 553.025 1075.950 C 555.798 1070.516, 555.881 1061.358, 553.207 1055.953 L 551.251 1052 553.875 1051.989 C 555.319 1051.983, 558.188 1051.699, 560.250 1051.358 C 563.683 1050.791, 564 1050.465, 564 1047.503 L 564 1044.268 548.750 1043.676 C 540.362 1043.350, 532.375 1042.879, 531 1042.628 C 529.625 1042.377, 526.411 1042.538, 523.859 1042.987 M 603.589 1043.146 C 598.164 1044.380, 593.308 1047.593, 590.031 1052.116 L 587.253 1055.951 586.577 1049.976 L 585.901 1044 581.450 1044 L 577 1044 577 1078 L 577 1112 582.431 1112 L 587.863 1112 588.181 1089.750 C 588.500 1067.529, 588.504 1067.494, 591.254 1062.815 C 595.391 1055.778, 598.983 1053.675, 607.954 1053.037 L 615.500 1052.500 616.123 1048 C 616.465 1045.525, 616.690 1043.451, 616.623 1043.391 C 615.780 1042.641, 606.569 1042.468, 603.589 1043.146 M 726.500 1043.016 C 720.364 1044.270, 717.542 1045.585, 713.648 1049.004 L 710.074 1052.142 709.453 1049.321 C 708.307 1044.110, 708.184 1044, 703.531 1044 L 699 1044 699 1078 L 699 1112 704.393 1112 L 709.786 1112 710.150 1089.250 C 710.500 1067.367, 710.609 1066.310, 713.007 1061.517 C 716.110 1055.315, 720.080 1052.924, 728.384 1052.257 C 735.993 1051.646, 740.658 1053.496, 743.544 1058.266 C 745.322 1061.206, 745.530 1063.797, 745.826 1086.750 L 746.152 1112 751.576 1112 L 757 1112 757 1088.049 C 757 1060.305, 756.272 1055.414, 751.329 1049.942 C 746.073 1044.125, 735.500 1041.175, 726.500 1043.016 M 875.920 1043.026 C 862.009 1045.333, 852.971 1056.707, 851.371 1073.917 C 849.626 1092.696, 858.482 1108.084, 873.343 1112.095 C 879.623 1113.789, 893.874 1113.356, 900.135 1111.279 L 905.500 1109.500 905.797 1104.389 L 906.095 1099.278 900.297 1101.267 C 896.484 1102.575, 891.592 1103.297, 886 1103.378 C 878.480 1103.486, 876.980 1103.194, 872.989 1100.848 C 867.577 1097.666, 864.150 1092.064, 863.318 1085.038 L 862.721 1080 885.861 1080 L 909 1080 909 1073.182 C 909 1063.470, 906.834 1057.143, 901.462 1051.169 C 895.104 1044.097, 886.329 1041.299, 875.920 1043.026 M 953.500 1043.016 C 947.355 1044.272, 944.541 1045.586, 940.617 1049.031 C 936.853 1052.336, 936.415 1052.151, 935.799 1047 C 935.533 1044.777, 934.973 1044.466, 930.750 1044.195 L 926 1043.890 926 1077.945 L 926 1112 931.405 1112 L 936.810 1112 937.155 1089.250 C 937.487 1067.325, 937.591 1066.319, 940 1061.517 C 943.513 1054.514, 947.361 1052.500, 957.228 1052.500 C 964.554 1052.500, 965.120 1052.663, 968.091 1055.632 C 972.378 1059.915, 972.905 1063.616, 972.956 1089.750 L 973 1112 978.574 1112 L 984.147 1112 983.812 1085.750 C 983.448 1057.190, 983.019 1054.762, 977.277 1048.768 C 972.713 1044.003, 961.701 1041.339, 953.500 1043.016 M 1018.330 1043.017 C 1012.199 1043.900, 1005.469 1047.430, 1002.653 1051.237 C 1001.335 1053.019, 1000.501 1055.982, 1000.260 1059.737 C 999.632 1069.518, 1004.090 1074.269, 1019.769 1080.526 C 1034.698 1086.484, 1039.508 1090.847, 1037.467 1096.580 C 1035.546 1101.975, 1031.917 1103.505, 1021.173 1103.451 C 1012.190 1103.406, 1009.755 1102.912, 1001.693 1099.506 C 1000.061 1098.816, 999.916 1099.262, 1000.193 1104.121 L 1000.500 1109.500 1005.978 1111.316 C 1013.232 1113.721, 1027.921 1113.851, 1034.786 1111.571 C 1046.783 1107.586, 1051.915 1095.632, 1046.324 1084.693 C 1044.396 1080.919, 1037.993 1077.021, 1025.434 1071.973 C 1018.338 1069.121, 1014.189 1066.825, 1012.494 1064.811 C 1009.680 1061.467, 1009.614 1061.145, 1010.994 1057.517 C 1013.385 1051.226, 1028.568 1050.227, 1042.082 1055.471 C 1043.251 1055.925, 1044.092 1054.995, 1045.305 1051.904 C 1046.209 1049.605, 1046.747 1047.399, 1046.501 1047.001 C 1045.795 1045.859, 1035.041 1043.235, 1029 1042.731 C 1025.975 1042.478, 1021.173 1042.607, 1018.330 1043.017 M 1085.859 1043.010 C 1078.970 1044.187, 1074.460 1046.693, 1069.733 1051.969 C 1064.148 1058.202, 1061.915 1064.448, 1061.267 1075.641 C 1060.504 1088.848, 1063.164 1097.295, 1070.352 1104.482 C 1077.123 1111.254, 1082.784 1113.216, 1095.299 1113.129 C 1101.522 1113.086, 1106.280 1112.459, 1110 1111.192 L 1115.500 1109.319 1115.799 1104.249 L 1116.098 1099.179 1110.160 1101.027 C 1088.714 1107.702, 1075.121 1101.632, 1072.594 1084.250 L 1071.976 1080 1095.614 1080 L 1119.251 1080 1118.792 1071.750 C 1118.209 1061.290, 1115.314 1054.327, 1109.371 1049.095 C 1103.471 1043.902, 1094.391 1041.552, 1085.859 1043.010 M 638.761 1045.348 C 635.054 1046.611, 631.797 1047.870, 631.522 1048.145 C 631.247 1048.420, 631.767 1050.544, 632.679 1052.865 C 633.925 1056.036, 634.730 1056.919, 635.918 1056.417 C 646.149 1052.101, 655.608 1050.974, 661.377 1053.384 C 665.239 1054.998, 668 1060.683, 668 1067.020 L 668 1071 660.750 1071.035 C 651.243 1071.081, 639.406 1073.242, 634.245 1075.875 C 626.076 1080.043, 622.425 1088.792, 624.420 1099.424 C 625.940 1107.528, 634.327 1113.177, 644.899 1113.219 C 654.020 1113.255, 658.955 1111.672, 664.249 1107.012 L 668.777 1103.026 669.450 1107.513 L 670.123 1112 674.561 1112 L 679 1112 679 1087.549 C 679 1073.690, 678.528 1060.899, 677.911 1058.020 C 676.602 1051.916, 673.009 1047.363, 667.541 1044.880 C 661.477 1042.125, 647.554 1042.352, 638.761 1045.348 M 154.024 1068.250 C 154.038 1081.588, 154.512 1094.525, 155.078 1097 C 157.551 1107.816, 165.409 1113.158, 178.849 1113.158 C 187.830 1113.158, 193.807 1111.112, 197.934 1106.625 C 200.663 1103.659, 201.958 1104.499, 201.985 1109.250 C 201.999 1111.881, 202.216 1112, 207 1112 L 212 1112 212 1078 L 212 1044 206.595 1044 L 201.190 1044 200.845 1066.750 C 200.513 1088.669, 200.409 1089.683, 198 1094.500 C 194.842 1100.817, 189.209 1104, 181.189 1104 C 174.508 1104, 170.003 1101.944, 167.456 1097.734 C 165.679 1094.796, 165.469 1092.189, 165.162 1069.250 L 164.823 1044 159.412 1044 L 154 1044 154.024 1068.250 M 358 1078 L 358 1112 363.500 1112 L 369 1112 369 1078 L 369 1044 363.500 1044 L 358 1044 358 1078 M 521.190 1053.026 C 515.487 1056.503, 513.385 1065.200, 516.466 1072.573 C 518.471 1077.372, 525.319 1080.478, 532.120 1079.672 C 540.827 1078.641, 544.438 1074.250, 544.226 1064.950 C 544.090 1058.963, 541.866 1054.499, 538.033 1052.517 C 533.764 1050.309, 525.222 1050.567, 521.190 1053.026 M 408 1054.186 C 399.832 1058.386, 395.810 1070.771, 398.049 1084.827 C 400.078 1097.569, 406.638 1104, 417.604 1104 C 425.632 1104, 430.880 1100.741, 434.489 1093.515 C 437.187 1088.112, 437.476 1086.602, 437.455 1078.015 C 437.413 1060.989, 431.529 1052.968, 418.532 1052.219 C 413.727 1051.943, 411.584 1052.343, 408 1054.186 M 795.149 1053.696 C 788.013 1057.213, 784.504 1066.752, 785.177 1080.814 C 785.654 1090.803, 788.465 1097.919, 793.327 1101.448 C 797.424 1104.422, 810.629 1104.416, 814.616 1101.438 C 821.251 1096.483, 823.632 1088.387, 822.653 1074.110 C 821.887 1062.946, 819.176 1057.345, 813.038 1054.250 C 807.671 1051.544, 800 1051.306, 795.149 1053.696 M 873.379 1053.437 C 869.794 1054.997, 865.791 1059.963, 864.138 1064.899 C 862.015 1071.240, 861.387 1071, 880.127 1071 L 897.254 1071 896.786 1066.128 C 896.221 1060.240, 892.962 1055.300, 888.383 1053.387 C 884.211 1051.643, 877.448 1051.666, 873.379 1053.437 M 1083.500 1053.412 C 1078.188 1055.773, 1073 1063.459, 1073 1068.968 C 1073 1070.931, 1073.577 1071, 1090 1071 L 1107 1071 1107 1067.657 C 1107 1062.818, 1103.068 1056.042, 1098.991 1053.855 C 1094.958 1051.692, 1087.828 1051.488, 1083.500 1053.412 M 259 1078 L 259 1083 274.500 1083 L 290 1083 290 1078 L 290 1073 274.500 1073 L 259 1073 259 1078 M 461 1078 L 461 1083 476.500 1083 L 492 1083 492 1078 L 492 1073 476.500 1073 L 461 1073 461 1078 M 653.500 1079.669 C 642.366 1081.040, 636.548 1084.560, 635.413 1090.610 C 634.526 1095.342, 636.626 1100.755, 640.034 1102.517 C 643.754 1104.441, 652.074 1104.414, 656.746 1102.462 C 664.066 1099.403, 666.777 1095.192, 667.685 1085.472 L 668.289 1079 662.395 1079.150 C 659.153 1079.232, 655.150 1079.466, 653.500 1079.669 M 516.096 1112.265 C 512.236 1114.249, 509.885 1118.224, 509.821 1122.878 C 509.716 1130.498, 515.322 1133.983, 527.701 1133.994 C 537.979 1134.004, 543.982 1132.248, 548.250 1127.983 C 551.226 1125.008, 552 1123.475, 552 1120.552 C 552 1115.618, 550.671 1113.430, 546.872 1112.105 C 542.473 1110.572, 519.155 1110.693, 516.096 1112.265" stroke="none" fill="#24140c" fill-rule="evenodd"/><path d="M 551.415 64.421 C 549.719 65.160, 547.356 67.003, 546.165 68.517 C 544.007 71.261, 544 71.441, 544 124.058 L 544 176.847 546.564 179.894 C 547.975 181.570, 550.787 183.402, 552.814 183.965 C 558.304 185.490, 652.463 185.244, 656.965 183.694 C 658.945 183.012, 661.410 181.044, 662.715 179.102 L 665 175.704 664.996 124.102 C 664.993 74.109, 664.930 72.397, 662.974 69.190 C 659.194 62.989, 659.262 62.996, 604.282 63.039 C 564.881 63.070, 553.857 63.358, 551.415 64.421 M 695 64.752 C 687.909 68.294, 688.003 67.501, 688.002 123.849 C 688 178.883, 687.983 178.718, 693.836 182.691 C 696.322 184.379, 699.985 184.500, 748.544 184.500 C 796.582 184.500, 800.795 184.364, 803.280 182.736 C 809.745 178.500, 809.500 180.814, 809.500 124.044 C 809.500 77.346, 809.340 72.207, 807.794 69.385 C 804.280 62.969, 804.569 63, 748.849 63.002 C 702.918 63.003, 698.193 63.157, 695 64.752 M 404.756 209.755 C 398.884 213.396, 398.922 212.983, 399.224 269.938 L 399.500 321.963 402.769 325.231 L 406.037 328.500 458.518 328.776 C 504.225 329.016, 511.385 328.852, 513.983 327.509 C 520.083 324.355, 520 325.165, 520 268.500 C 520 211.894, 520.076 212.642, 514.033 209.517 C 511.519 208.217, 503.681 208.004, 459.300 208.027 C 412.299 208.051, 407.246 208.211, 404.756 209.755 M 549.763 209.565 C 543.945 212.722, 544 212.157, 544 268.500 C 544 325.165, 543.917 324.355, 550.017 327.509 C 552.615 328.852, 559.775 329.016, 605.482 328.776 L 657.963 328.500 661.231 325.231 L 664.500 321.963 664.776 269.938 C 665.080 212.768, 665.128 213.279, 659.080 209.706 C 656.455 208.156, 651.463 208.004, 604.346 208.040 C 560.438 208.074, 552.081 208.307, 549.763 209.565 M 408.256 352.975 C 406.472 353.398, 404.265 354.365, 403.351 355.122 C 399.151 358.606, 399 360.639, 399.004 413.718 C 399.007 462.889, 399.072 464.605, 401.026 467.810 C 404.868 474.112, 404.559 474.082, 461.608 473.776 L 513.155 473.500 516.577 469.765 L 520 466.029 520 413.091 L 520 360.153 517.436 357.106 C 516.025 355.430, 513.213 353.598, 511.186 353.035 C 506.868 351.835, 413.285 351.781, 408.256 352.975 M 552.333 353.075 C 550.591 353.592, 548.004 355.396, 546.583 357.084 L 544 360.153 544 413.091 L 544 466.029 547.423 469.765 L 550.845 473.500 602.392 473.776 C 659.441 474.082, 659.132 474.112, 662.974 467.810 C 664.928 464.605, 664.993 462.889, 664.996 413.718 C 665 358.435, 664.982 358.243, 659.386 354.454 C 656.626 352.585, 654.293 352.492, 606 352.318 C 576.853 352.214, 554.161 352.534, 552.333 353.075 M 697.942 352.930 C 693.227 354.394, 691.271 355.908, 689.630 359.367 C 688.190 362.401, 688 368.677, 688.002 413.151 C 688.003 459.082, 688.157 463.807, 689.752 467 C 693.294 474.091, 692.501 473.997, 748.849 473.998 C 804.569 474, 804.280 474.031, 807.794 467.615 C 809.340 464.793, 809.500 459.654, 809.500 412.956 C 809.500 365.396, 809.364 361.204, 807.736 358.720 C 803.520 352.285, 805.602 352.518, 750.545 352.318 C 723.020 352.218, 699.349 352.493, 697.942 352.930 M 406.270 498.469 C 404.493 499.249, 402.132 501.375, 401.023 503.193 C 399.072 506.394, 399.007 508.130, 399.004 557.282 C 399 612.565, 399.018 612.757, 404.614 616.546 C 407.360 618.405, 409.806 618.515, 455 618.815 C 481.125 618.988, 504.951 618.832, 507.947 618.469 C 512.288 617.941, 514.063 617.137, 516.697 614.503 L 520 611.200 520 558.085 L 520 504.971 516.577 501.235 L 513.155 497.500 461.327 497.275 C 418.409 497.089, 408.945 497.294, 406.270 498.469 M 551.418 497.969 C 550.274 498.432, 548.136 500.238, 546.668 501.982 L 544 505.153 544 558.177 L 544 611.200 547.303 614.503 C 549.937 617.137, 551.712 617.941, 556.053 618.469 C 559.049 618.832, 582.875 618.988, 609 618.815 C 654.194 618.515, 656.640 618.405, 659.386 616.546 C 664.982 612.757, 665 612.565, 664.996 557.282 C 664.993 508.111, 664.928 506.395, 662.974 503.190 C 659.188 496.980, 659.317 496.993, 603.782 497.063 C 576.127 497.098, 552.563 497.506, 551.418 497.969" stroke="none" fill="#339c2c" fill-rule="evenodd"/></svg>