<svg width="256" height="256" viewBox="0 0 256 256" fill="none" xmlns="http://www.w3.org/2000/svg">
<rect width="256" height="256" fill="#08A8B3"/>
<path d="M73 194V61H91.9082V194H73ZM104.977 194V181.27C125.739 181.27 140.013 179.813 147.798 176.9C157.623 172.973 162.628 166.197 162.814 156.57V98.43C162.814 86.27 154.657 78.7333 138.344 75.82C130.929 74.4267 119.807 73.73 104.977 73.73V61C139.457 61 162.072 66.0667 172.824 76.2C178.941 82.0267 182 89.4367 182 98.43V156.57C182 175.697 169.209 187.413 143.628 191.72C134.173 193.24 121.29 194 104.977 194Z" fill="white"/>
<path d="M108 85H128V170H108V85Z" fill="white"/>
</svg>
