<svg xmlns="http://www.w3.org/2000/svg" width="1200" height="1176" viewBox="0 0 1200 1176" version="1.1"><path d="M 1004 1.598 C 931.951 11.155, 885.876 41.603, 875.453 86.548 C 874.646 90.028, 871.967 113.576, 869.501 138.877 C 864.722 187.904, 864.050 191.489, 858.096 199.709 C 850.361 210.386, 839.044 215.739, 807 223.877 C 790.180 228.148, 784.882 230.020, 773.768 235.616 C 726.360 259.490, 696.275 309.334, 686.518 380.168 C 683.705 400.590, 683.261 418.362, 683.120 516.212 C 683.007 593.674, 682.714 613.314, 681.581 619.212 C 673.663 660.424, 633.875 690.837, 592.186 687.542 C 551.684 684.342, 519.226 654.688, 513.115 615.306 C 512.331 610.250, 512 562.557, 512 454.558 L 512 301 425.500 301 L 339 301 339.009 456.250 C 339.014 551.657, 339.404 615.933, 340.020 623 C 345.494 685.768, 371.749 741.906, 416.128 785.730 C 456.726 825.821, 505.565 849.985, 562.500 858.153 C 581.570 860.889, 611.348 861.085, 630 858.597 C 658.422 854.806, 685.873 846.603, 710.500 834.541 C 749.687 815.349, 779.878 790.174, 806.490 754.500 C 829.673 723.423, 845.730 685.056, 853.153 643 C 855.312 630.772, 855.375 628.013, 856.057 516 C 856.512 441.465, 857.145 398.533, 857.872 393 C 860.191 375.352, 862.233 363.181, 864.501 353.500 C 872.532 319.218, 886.721 289.553, 905.022 268.780 C 917.746 254.339, 930.664 244.300, 947.471 235.791 C 958.023 230.449, 960.312 229.670, 982.146 223.996 C 1010.190 216.708, 1020.012 212.264, 1028.264 203.130 C 1032.384 198.570, 1035.249 193.381, 1036.896 187.500 C 1037.513 185.300, 1040.029 162.945, 1042.488 137.823 C 1044.947 112.701, 1047.399 90.201, 1047.937 87.823 C 1056.780 48.748, 1090.764 21.252, 1147 7.671 C 1159.667 4.612, 1176.124 2.006, 1189 1.019 C 1194.225 0.619, 1157.100 0.272, 1106.500 0.248 C 1033.373 0.214, 1012.346 0.491, 1004 1.598 M 509.368 996.147 C 494.214 997.456, 481.323 1003.490, 472.084 1013.599 C 460.120 1026.689, 457.006 1045.294, 464.367 1059.697 C 470.655 1071.999, 478.106 1077.699, 510.500 1094.990 C 540.790 1111.157, 547.630 1116.066, 551.617 1124.500 C 557.267 1136.453, 552.894 1148.274, 540.022 1155.841 C 535.770 1158.341, 534.783 1158.494, 523.500 1158.400 C 513.423 1158.315, 510.218 1157.878, 503.500 1155.675 C 493.329 1152.338, 482.610 1146.011, 472.750 1137.522 L 465 1130.851 465 1143.714 L 465 1156.577 470.250 1159.748 C 496.296 1175.479, 528.039 1180.133, 554.097 1172.041 C 568.546 1167.554, 582.682 1156.179, 588.042 1144.723 C 596.032 1127.650, 593.247 1110.449, 580.294 1096.869 C 572.789 1089.001, 562.408 1082.241, 536 1068.021 C 503.454 1050.497, 498.396 1046.601, 496.039 1037.241 C 493.282 1026.293, 499.945 1017.132, 512.930 1014.017 C 523.822 1011.404, 548.166 1019.518, 570.750 1033.289 L 580 1038.929 580 1017.414 L 580 995.898 576.696 998.418 C 568.362 1004.775, 562.975 1005.280, 547.923 1001.117 C 528.422 995.723, 522.747 994.991, 509.368 996.147 M 950 996.118 C 915.401 999.751, 887.212 1024.106, 877.799 1058.500 C 874.773 1069.557, 874.518 1100.760, 877.368 1111.336 C 881.974 1128.428, 888.300 1139.480, 900.410 1151.590 C 918.617 1169.797, 937.201 1176.747, 965 1175.745 C 976.028 1175.347, 980.057 1174.761, 987 1172.542 C 1012.305 1164.455, 1031.516 1146.464, 1040.592 1122.353 C 1049.993 1097.377, 1048.509 1063.857, 1036.991 1040.993 C 1025.770 1018.719, 1002.990 1001.770, 978 997.102 C 970.634 995.726, 957.974 995.281, 950 996.118 M 1112.368 996.100 C 1086.939 998.441, 1067.974 1014.081, 1064.003 1035.983 C 1062.474 1044.416, 1063.436 1051.552, 1067.087 1058.858 C 1073.561 1071.814, 1080.768 1077.513, 1111.500 1093.984 C 1144.542 1111.693, 1150.584 1115.969, 1154.617 1124.500 C 1159.404 1134.627, 1156.540 1146.076, 1147.528 1152.836 C 1140.800 1157.883, 1135.202 1159.262, 1123.978 1158.640 C 1106.584 1157.675, 1091.475 1151.059, 1075.750 1137.522 L 1068 1130.851 1068 1143.714 L 1068 1156.577 1073.250 1159.748 C 1107.214 1180.261, 1149.025 1181.430, 1175.407 1162.604 C 1190.158 1152.078, 1197.352 1136.602, 1195.050 1120.348 C 1192.514 1102.441, 1181.053 1090.771, 1149 1073.458 C 1142.125 1069.744, 1131.550 1064.028, 1125.500 1060.756 C 1104.707 1049.508, 1098.533 1043.175, 1098.533 1033.090 C 1098.533 1025.752, 1101.097 1021.398, 1107.785 1017.380 C 1114.487 1013.353, 1119.135 1012.676, 1128.168 1014.410 C 1143.835 1017.419, 1162.515 1025.668, 1180.250 1037.409 L 1183 1039.230 1183 1017.564 L 1183 995.898 1179.696 998.418 C 1175.079 1001.940, 1169.735 1004, 1165.218 1004 C 1163.102 1004, 1155.775 1002.425, 1148.936 1000.500 C 1142.096 998.575, 1134.025 996.754, 1131 996.452 C 1127.975 996.151, 1124.375 995.780, 1123 995.628 C 1121.625 995.476, 1116.840 995.689, 1112.368 996.100 M 5.287 1000.422 C 14.163 1002.809, 21.015 1010.253, 25.151 1022 C 27.378 1028.325, 27.456 1029.809, 28.038 1077 C 28.600 1122.557, 28.768 1125.974, 30.794 1133.314 C 37.014 1155.845, 52.318 1169.841, 75.894 1174.560 C 86.315 1176.645, 110.194 1176.117, 119.500 1173.596 C 136.893 1168.883, 150.499 1157.666, 156.881 1142.778 C 162.238 1130.280, 162.326 1129.066, 162.732 1061.750 L 163.110 999 140.305 999.033 L 117.500 999.065 122.827 1000.905 C 132.386 1004.206, 140.143 1014.602, 142.895 1027.799 C 143.600 1031.178, 144 1048.251, 144 1074.918 C 144 1128.052, 142.985 1135.113, 133.857 1145.510 C 127.197 1153.096, 116.097 1156.968, 101 1156.973 C 86.166 1156.978, 75.737 1152.742, 69.524 1144.187 C 61.747 1133.478, 61.040 1126.089, 61.018 1055.250 L 61 999 30.750 999.067 C 4.192 999.127, 1.084 999.292, 5.287 1000.422 M 191.179 1000.395 C 200 1002.770, 206.489 1009.479, 210.879 1020.764 L 213.500 1027.500 213.781 1100.250 L 214.062 1173 223.524 1173 L 232.985 1173 233.243 1109.523 L 233.500 1046.046 259 1077.659 C 273.025 1095.046, 295.980 1123.498, 310.011 1140.886 L 335.523 1172.500 341.761 1172.798 L 348 1173.095 348 1086.048 L 348 999 325.250 999.033 L 302.500 999.065 307.827 1000.905 C 317.397 1004.210, 325.341 1014.667, 327.983 1027.435 C 328.639 1030.605, 328.931 1047.265, 328.765 1071.958 L 328.500 1111.417 283.533 1055.208 L 238.565 999 212.533 999.067 C 189.708 999.127, 187.077 999.290, 191.179 1000.395 M 374.521 1000.801 C 384.554 1004.271, 390.007 1010.400, 394.272 1023 C 396.445 1029.421, 396.475 1030.371, 396.779 1101.250 L 397.087 1173 413.543 1173 L 430 1173 430 1086 L 430 999 399.750 999.033 C 369.751 999.065, 369.542 999.080, 374.521 1000.801 M 606.776 1000.469 C 614.681 1002.938, 619.327 1007.022, 623.571 1015.233 C 629.003 1025.745, 629 1025.699, 629 1102.210 L 629 1173 646 1173 L 663 1173 663 1086 L 663 999 632.750 999.067 C 605.987 999.126, 602.993 999.288, 606.776 1000.469 M 689.031 1000.536 C 695.349 1002.484, 701.536 1008.139, 705.123 1015.244 C 710.877 1026.643, 710.964 1027.949, 710.983 1103.750 L 711 1173 720.493 1173 L 729.985 1173 730.243 1109.633 L 730.500 1046.265 774.500 1100.843 C 798.700 1130.861, 821.773 1159.377, 825.772 1164.211 L 833.045 1173 839.022 1173 L 845 1173 845 1086 L 845 999 821.750 999.100 C 805.787 999.169, 799.686 999.480, 802.282 1000.092 C 807.905 1001.416, 811.240 1003.416, 815.282 1007.890 C 819.845 1012.941, 822.413 1017.945, 824.423 1025.704 C 825.732 1030.754, 826 1038.629, 826 1072.012 L 826 1112.235 780.750 1055.639 L 735.500 999.043 710 999.091 C 686.634 999.135, 684.879 999.256, 689.031 1000.536 M 952.510 1013.222 C 939.420 1015.595, 926.094 1026.220, 919.520 1039.525 C 913.520 1051.669, 911.650 1062.366, 911.569 1085 C 911.495 1105.986, 912.442 1113.362, 916.770 1125.500 C 921.679 1139.266, 930.743 1149.643, 942.777 1155.278 C 951.978 1159.587, 964.582 1160.301, 974.308 1157.064 C 990.598 1151.643, 1001.990 1138.038, 1007.076 1117.932 C 1010.095 1105.999, 1010.905 1076.577, 1008.614 1062.111 C 1005.603 1043.102, 998.699 1030.191, 986.898 1021.504 C 976.628 1013.944, 964.561 1011.038, 952.510 1013.222" stroke="none" fill="#203c9c" fill-rule="evenodd"/><path d="" stroke="none" fill="#1c3c9c" fill-rule="evenodd"/></svg>