<svg width="109" height="133" viewBox="0 0 109 133" fill="none" xmlns="http://www.w3.org/2000/svg">
<path d="M0 133V0H18.9082V133H0ZM31.977 133V120.27C52.7389 120.27 67.0128 118.813 74.7985 115.9C84.6233 111.973 89.6284 105.197 89.8138 95.57V37.43C89.8138 25.27 81.6573 17.7333 65.3444 14.82C57.9294 13.4267 46.807 12.73 31.977 12.73V0C66.4566 0 89.0723 5.06667 99.824 15.2C105.941 21.0267 109 28.4367 109 37.43V95.57C109 114.697 96.2092 126.413 70.6276 130.72C61.1735 132.24 48.29 133 31.977 133Z" fill="#08A8B3"/>
<path d="M35 24H55V109H35V24Z" fill="#08A8B3"/>
</svg>
